<?xml version="1.0" standalone="no"?>
<!DOCTYPE svg PUBLIC "-//W3C//DTD SVG 20010904//EN"
 "http://www.w3.org/TR/2001/REC-SVG-20010904/DTD/svg10.dtd">
<svg version="1.0" xmlns="http://www.w3.org/2000/svg"
 width="700.000000pt" height="700.000000pt" viewBox="0 0 700.000000 700.000000"
 preserveAspectRatio="xMidYMid meet">
<metadata>
Created by potrace 1.11, written by Peter Selinger 2001-2013
</metadata>
<g transform="translate(0.000000,700.000000) scale(0.100000,-0.100000)"
fill="#000000" stroke="none">
<path d="M2609 5796 c-5 -3 -3 -4626 1 -4627 26 -5 1214 -2 1222 3 8 4 11 227
11 707 0 509 3 701 11 702 6 0 229 2 496 4 267 2 510 6 540 9 89 11 324 46
342 52 9 2 25 7 35 9 209 42 480 153 638 260 305 208 505 505 584 866 30 139
36 211 36 419 0 184 -4 235 -25 340 -6 30 -13 67 -15 82 -12 63 -80 250 -122
331 -108 209 -276 393 -478 525 -79 52 -282 148 -380 181 -175 58 -374 100
-550 116 -38 4 -81 9 -95 12 -19 4 -2246 13 -2251 9z m1889 -946 c275 -4 473
-65 596 -184 66 -63 86 -94 119 -176 56 -143 66 -361 25 -530 -17 -68 -73
-172 -121 -222 -97 -103 -196 -149 -417 -194 -19 -4 -221 -9 -447 -11 l-413
-5 0 44 c-1 24 -2 321 -3 660 l-2 617 45 3 c43 3 349 2 618 -2z"/>
<path d="M470 2498 c-1 -21 -1 -1260 -1 -1295 l1 -33 650 0 650 0 0 58 c1 85
1 1072 0 1185 l0 97 -650 0 c-513 0 -650 -3 -650 -12z"/>
</g>
</svg>
