<svg viewBox="0 0 32 32" xmlns="http://www.w3.org/2000/svg">
  <path d="M16.5 0C7.385 0 0 7.385 0 16.5S7.385 33 16.5 33 33 25.615 33 16.5c0-.666-.048-1.321-.129-1.971a3.405 3.405 0 01-1.934.596 3.434 3.434 0 01-3.217-2.256 5.51 5.51 0 01-2.97.881c-3.04 0-5.5-2.46-5.5-5.5 0-1.01.29-1.944.768-2.76-.027.005-.054.01-.08.01A3.434 3.434 0 0116.5 2.062c0-.768.258-1.466.682-2.035C16.957.017 16.731 0 16.5 0zM27 0a2 2 0 10.001 4.001A2 2 0 0027 0zM13.894 3a6.177 6.177 0 002.701 4.205c-.042.325-.063.66-.063.99 0 4.51 3.642 8.177 8.119 8.177a7.8 7.8 0 001.987-.255A6.093 6.093 0 0030 17.692C29.34 24.592 23.551 30 16.532 30 9.068 30 3 23.889 3 16.372 3 9.766 7.694 4.24 13.894 3zM24.5 7c-.826 0-1.5.674-1.5 1.5s.674 1.5 1.5 1.5S26 9.326 26 8.5 25.326 7 24.5 7zm-11 1c-.826 0-1.5.674-1.5 1.5s.674 1.5 1.5 1.5 1.5-.674 1.5-1.5S14.326 8 13.5 8zm18 0c-.826 0-1.5.674-1.5 1.5s.674 1.5 1.5 1.5 1.5-.674 1.5-1.5S32.326 8 31.5 8zM10 12c-1.658 0-3 1.342-3 3s1.342 3 3 3 3-1.342 3-3-1.342-3-3-3zm6.5 3c-.826 0-1.5.674-1.5 1.5s.674 1.5 1.5 1.5 1.5-.674 1.5-1.5-.674-1.5-1.5-1.5zM12 21a2 2 0 10.001 4.001A2 2 0 0012 21zm9 1a2 2 0 10.001 4.001A2 2 0 0021 22z"/>
</svg>
