<svg xmlns="http://www.w3.org/2000/svg" viewBox="0 0 50 50">
  <path d="M29 .813c-7.2 0-14.578 2.195-20.031 9.156C3.516 16.929 0 28.473 0 47a.997.997 0 00.348.77.995.995 0 00.808.23S6.961 47 18 47h.063c1.945 1.809 4.23 3 6.937 3 2.71 0 5.184-1.172 7.313-3h.03c.052.004.106.004.157 0 10.84 0 16.313 1 16.313 1A1.002 1.002 0 0050 47c0-4.957-.438-8.45-.875-10.719-.316-1.636-.59-2.46-.75-2.906.39-.71.625-1.512.625-2.375v-3c0-1.613-.8-3.05-2-3.969-.055-5.531-1.707-10.484-4.625-14.093-2.809-3.473-6.855-5.618-11.594-5.844L29.97 1.5A1 1 0 0029 .812zm-.719 2.062l.75 2.438A1 1 0 0030 6c4.508 0 8.18 1.934 10.813 5.188 2.425 3 3.933 7.16 4.156 11.906A4.967 4.967 0 0044 23h-2.094A.996.996 0 0041 24v1.813a4.388 4.388 0 00-1.406-.407c-1.2-1.5-6.196-7.804-8.594-13.906-.2-.398-.5-.695-1-.594-.398 0-.805.29-.906.688-1 3.601-9.305 14.113-17.907 14.312-.5-.101-1.68-.3-2.78.5-1 .801-1.407 1.907-1.407 3.407 0 2.3 1.488 4.187 3.688 4.687 1.332 3.48 3.12 7.477 5.53 10.531-8.398.078-12.823.649-14.155.844.152-17.54 3.535-28.363 8.468-34.656 4.867-6.211 11.207-8.203 17.75-8.344zM30 14.406C33 20.805 37.988 26.7 38.188 27c.199.2.511.406.812.406 0 0 1.426.02 2 1.219V31c0 1.3-2.5 1.594-2.5 1.594-.398 0-.805.414-.906.812-.5 2.301-1.305 4.492-2.407 6.594h2.22c.8-1.8 1.507-3.7 1.906-5.5A6.504 6.504 0 0041 33.875V35c0 .55.45 1 1 1h1c0 2.754-2.246 5-5 5h-8.188c-.417-1.156-1.519-2-2.812-2h-2c-1.645 0-3 1.355-3 3s1.355 3 3 3h2c1.293 0 2.395-.844 2.813-2H38c3.844 0 7-3.156 7-7v-.094a5.034 5.034 0 001.844-.781c.105.414.191.906.312 1.531.375 1.934.746 5.047.813 9.188-1.305-.2-5.516-.739-13.688-.813.285-.336.547-.672.813-1.031H32.5c-2.102 2.398-4.7 4-7.5 4-4.8 0-8.887-4.813-12.688-14.813-.101-.398-.511-.593-.812-.593-1.398-.102-2.5-1.282-2.5-2.782 0-.601.102-1.417.5-1.718.398-.301 1.188-.188 1.188-.188H11c8.3 0 16.2-8.199 19-13.5zM43 25h1a3 3 0 013 3v3c0 .598-.168 1.156-.469 1.625-.062.066-.113.14-.156.219A3.005 3.005 0 0144 34h-1v-5.219c.07-.199.082-.437 0-.687zM25 41h2c.555 0 1 .445 1 1 0 .555-.445 1-1 1h-2c-.555 0-1-.445-1-1 0-.555.445-1 1-1z"/>
</svg>
