<svg xmlns="http://www.w3.org/2000/svg" viewBox="0 0 50 50">
  <path d="M5.8 5A2.817 2.817 0 003 7.8V44a1 1 0 001 1h42a1 1 0 001-1V7.8C47 6.267 45.734 5 44.2 5H5.8zm0 2h38.4c.453 0 .8.347.8.8V12H5V7.8c0-.453.347-.8.8-.8zM5 14h40v29H5V14zm6 5v5H9a1 1 0 00-1 1v4a1 1 0 001 1h2v8h2v-8h2a1 1 0 001-1v-4a1 1 0 00-1-1h-2v-5h-2zm13 0v10h-2a1 1 0 00-1 1v4a1 1 0 001 1h2v3h2v-3h2a1 1 0 001-1v-4a1 1 0 00-1-1h-2V19h-2zm13 0v5h-2a1 1 0 00-1 1v4a1 1 0 001 1h2v8h2v-8h2a1 1 0 001-1v-4a1 1 0 00-1-1h-2v-5h-2zm-27 7h4v2h-4v-2zm26 0h4v2h-4v-2zm-13 5h4v2h-4v-2z"/>
</svg>
