<svg xmlns="http://www.w3.org/2000/svg" viewBox="0 0 50 50">
  <path d="M25 3.594l-.5.5-.094.062a1.012 1.012 0 00-.25.282l-7.875 7.843a1.017 1.017 0 101.438 1.438L24 7.438V36a.998.998 0 00.367.797c.235.195.551.27.852.203.101-.027.195-.07.281-.125a.466.466 0 00.063-.031.985.985 0 00.156-.157.913.913 0 00.187-.218c.047-.098.078-.203.094-.313.004-.05.004-.105 0-.156V7.437l6.281 6.282c.242.246.598.355.938.281.097-.027.195-.07.281-.125.031-.008.063-.02.094-.031a.985.985 0 00.156-.156 1.016 1.016 0 00-.031-1.407l-7.875-7.844c-.02-.03-.04-.062-.063-.093a.472.472 0 00-.156-.125zM2 36v6c0 2.746 2.254 5 5 5h36c2.746 0 5-2.254 5-5v-6h-2v6a3 3 0 01-3 3H7a3 3 0 01-3-3v-6z"/>
</svg>
