<svg xmlns="http://www.w3.org/2000/svg" viewBox="0 0 50 50">
  <path d="M3 7a1 1 0 00-1 1v4a1 1 0 001 1h4a1 1 0 001-1V8a1 1 0 00-1-1H3zm1 2h2v2H4V9zm7 0a1 1 0 100 2h36a1 1 0 100-2H11zm-8 8a1 1 0 00-1 1v4a1 1 0 001 1h4a1 1 0 001-1v-4a1 1 0 00-1-1H3zm1 2h2v2H4v-2zm7 0a1 1 0 100 2h36a1 1 0 100-2H11zm25 7c-5.511 0-10 4.489-10 10s4.489 10 10 10a9.947 9.947 0 006.322-2.264l5.971 5.971 1.414-1.414-5.97-5.97A9.947 9.947 0 0046 36c0-5.511-4.489-10-10-10zM3 27a1 1 0 00-1 1v4a1 1 0 001 1h4a1 1 0 001-1v-4a1 1 0 00-1-1H3zm33 1c4.43 0 8 3.57 8 8s-3.57 8-8 8-8-3.57-8-8 3.57-8 8-8zM4 29h2v2H4v-2zm7 0a1 1 0 000 2h14.102c.325-.707.716-1.375 1.166-2H11zm-8 8a1 1 0 00-1 1v4a1 1 0 001 1h4a1 1 0 001-1v-4a1 1 0 00-1-1H3zm1 2h2v2H4v-2zm7 0a1 1 0 000 2h14.102a11.894 11.894 0 01-.71-2H11z"/>
</svg>
