<svg xmlns="http://www.w3.org/2000/svg" viewBox="0 0 50 50">
  <path d="M24.984 1.986a1 1 0 00-.17.018C12.21 2.104 2 12.372 2 25c0 12.69 10.31 23 23 23 6.257 0 11.933-2.508 16.082-6.57a1 1 0 00.346-.348C45.49 36.932 48 31.257 48 25 48 12.37 37.79 2.103 25.184 2.004a1 1 0 00-.2-.018zM24 4.026v8.025c-6.701.513-12 6.118-12 12.949 0 7.168 5.832 13 13 13a12.93 12.93 0 008.445-3.139l5.668 5.666C35.385 43.917 30.444 46 25 46 13.39 46 4 36.61 4 25 4 13.725 12.856 4.546 24 4.025zm2 0c11.144.52 20 9.7 20 20.974 0 5.444-2.082 10.385-5.473 14.113l-5.666-5.668A12.93 12.93 0 0038 25c0-6.83-5.299-12.436-12-12.95V4.026zM25 14c6.087 0 11 4.913 11 11s-4.913 11-11 11-11-4.913-11-11 4.913-11 11-11z"/>
</svg>
