<svg xmlns="http://www.w3.org/2000/svg" viewBox="0 0 50 50">
  <path d="M0 0v16h16V0zm2 2h12v8.031L11.875 8l-.531-.469-.625.313-1.813.937L6.22 5.562l-.657-.78-.75.655L2 7.845zm9.5 1a1.5 1.5 0 100 3 1.5 1.5 0 000-3zm9.219 1c-.551.078-.938.59-.86 1.14.078.551.59.938 1.141.86h28c.36.004.695-.184.879-.496a1.01 1.01 0 000-1.008c-.184-.312-.52-.5-.879-.496H20.719zM5.344 7.625l2.531 3.031.5.594.719-.344L11 9.937l3 2.844V14H2v-3.5zM20.719 10c-.551.078-.938.59-.86 1.14.078.551.59.938 1.141.86h28c.36.004.695-.184.879-.496a1.01 1.01 0 000-1.008c-.184-.312-.52-.5-.879-.496H20.719zM0 17v16h16V17zm2 2h12v12H2zm7.406 1c-.113-.004-.234.016-.344.031-.44.059-.851.246-1.156.407-.273.144-.293.18-.468.312-.278-.137-.536-.305-.97-.375-.613-.102-1.464.016-2.093.625-.79.77-.793 1.816-.656 2.5.058.29.11.297.187.5-.144.152-.187.145-.344.375-.382.566-.812 1.492-.437 2.5.191.516.582.902.969 1.125.66.379 1.297.457 1.781.438.258.398.66.863 1.281 1.218.336.192.774.34 1.25.313.563-.032 1.028-.317 1.344-.625.316-.309.504-.657.656-.969.145-.297.153-.344.219-.563.21-.042.254-.019.531-.125.64-.238 1.512-.734 1.781-1.78.25-.97-.234-1.77-.687-2.25-.27-.286-.434-.38-.656-.532.027-.223.043-.254.031-.563-.027-.687-.2-1.703-1.156-2.25A2.22 2.22 0 009.406 20zm11.313 1c-.551.078-.938.59-.86 1.14.078.551.59.938 1.141.86h28c.36.004.695-.184.879-.496a1.01 1.01 0 000-1.008c-.184-.312-.52-.5-.879-.496H20.719zM9.25 22.031c.11-.02.191-.015.219 0 .05.032.14.242.156.625.016.383-.031.719-.031.719l-.188.781.719.344c.102.059.438.297.656.531.219.235.235.32.219.375-.027.106-.18.278-.531.407-.352.128-.688.156-.688.156l-.75.062-.156.75s-.074.364-.25.719c-.086.18-.207.336-.281.406-.074.07-.067.063-.063.063-.02 0-.039.015-.125-.032-.3-.171-.812-1-.812-1L7 26.22l-.75.156s-.93.004-1.156-.125c-.043-.023-.078-.023-.094-.063-.059-.16.02-.39.219-.687.199-.297.437-.531.437-.531l.625-.532-.406-.718s-.148-.285-.219-.625c-.07-.34-.027-.508.125-.657.098-.097.145-.132.375-.093.23.039.52.183.688.281h.031a.398.398 0 01.125.094l.656.468.594-.562s.254-.258.594-.438c.168-.09.297-.136.406-.156zm-.594 1.032c-.453.117-.75 1.468-.75 1.468s-.707-1.613-1.218-1.187c-.512.426 1.062 1.343 1.062 1.343s-1.738.196-1.531.782c.207.586 1.625-.594 1.625-.594s-.375 1.793.281 1.688c.656-.106-.063-1.72-.063-1.72s1.59.91 1.688.25c.098-.655-1.656-.437-1.656-.437s1.32-1.238.75-1.562a.235.235 0 00-.188-.032zM20.72 27c-.551.078-.938.59-.86 1.14.078.551.59.938 1.141.86h28c.36.004.695-.184.879-.496a1.01 1.01 0 000-1.008c-.184-.312-.52-.5-.879-.496H20.719zM0 34v16h16V34zm2 2h12v12H2zm6 1.344s-.559 1.68-1.094 1.906c-.535.227-2.218-.563-2.218-.563s.742 1.672.562 2.22C5.121 41.296 3.344 42 3.344 42s1.722.625 1.844 1.094c.18.695-.5 2.218-.5 2.218s1.582-.867 2.093-.593C7.293 44.992 8 46.656 8 46.656s.559-1.68 1.094-1.906c.535-.227 2.219.563 2.219.563s-.754-1.672-.563-2.22c.148-.425 1.906-1.093 1.906-1.093s-1.703-.668-1.844-1.094c-.226-.683.5-2.218.5-2.218s-1.582.867-2.093.593C8.707 39.008 8 37.344 8 37.344zM20.719 38c-.551.078-.938.59-.86 1.14.078.551.59.938 1.141.86h28c.36.004.695-.184.879-.496a1.01 1.01 0 000-1.008c-.184-.312-.52-.5-.879-.496H20.719zM8 40.531c.813 0 1.469.657 1.469 1.469 0 .813-.656 1.469-1.469 1.469A1.467 1.467 0 016.531 42c0-.813.657-1.469 1.469-1.469zM20.719 44c-.551.078-.938.59-.86 1.14.078.551.59.938 1.141.86h28c.36.004.695-.184.879-.496a1.01 1.01 0 000-1.008c-.184-.312-.52-.5-.879-.496H20.719z"/>
</svg>
