<svg xmlns="http://www.w3.org/2000/svg" viewBox="0 0 50 50">
  <path d="M7 4C5.355 4 4 5.355 4 7v36c0 1.645 1.355 3 3 3h36c1.645 0 3-1.355 3-3V7c0-1.645-1.355-3-3-3H7zm0 2h36c.565 0 1 .435 1 1v3H6V7c0-.565.435-1 1-1zm1 1a1 1 0 00-1 1 1 1 0 001 1 1 1 0 001-1 1 1 0 00-1-1zm3 0a1 1 0 00-1 1 1 1 0 001 1 1 1 0 001-1 1 1 0 00-1-1zm3 0a1 1 0 00-1 1 1 1 0 001 1 1 1 0 001-1 1 1 0 00-1-1zm-8 5h38v31c0 .565-.435 1-1 1H7c-.565 0-1-.435-1-1V12zm24.936 3.95a5.962 5.962 0 00-4.172 1.751 6 6 0 00-1.368 6.365l-1.457 1.46-4.99-4.99V19.12L15.414 17 14 18.414l2.121 3.535h1.414l4.99 4.99-8.793 8.793a2.5 2.5 0 003.536 3.536l11.689-11.69c2.122.77 4.59.311 6.291-1.39a5.999 5.999 0 001.168-6.825l-3.996 3.994-2.121-.707-.707-2.12 3.996-3.997a6.018 6.018 0 00-2.652-.584zm-1.022 14.136l-2.828 2.828 6.5 6.5a2 2 0 102.828-2.828l-6.5-6.5z"/>
</svg>
