<svg xmlns="http://www.w3.org/2000/svg" viewBox="0 0 50 50">
  <path d="M24.906-.031c-.043.008-.086.02-.125.031A1.002 1.002 0 0024 1v14.563l-5.281-5.282A1.007 1.007 0 0017.78 10a.994.994 0 00-.781.703c-.105.367.004.758.281 1.016l6.875 6.844a.965.965 0 00.282.28l.562.563.563-.562a1.16 1.16 0 00.218-.219l6.938-6.906a1.014 1.014 0 000-1.438 1.014 1.014 0 00-1.438 0L26 15.562V1a1 1 0 00-1.094-1.031zm-14 17c-.043.008-.086.02-.125.031a.994.994 0 00-.781.703c-.105.367.004.758.281 1.016L15.562 24H.813c-.55.05-.957.543-.906 1.094.051.55.543.957 1.094.906h14.563l-5.282 5.281a1.014 1.014 0 000 1.438c.399.398 1.04.398 1.438 0l6.844-6.875a.954.954 0 00.156-.125l.062-.094a.472.472 0 00.063-.063l.562-.562-.562-.563a.954.954 0 00-.125-.156h-.032a.472.472 0 00-.062-.062l-6.906-6.938a1.004 1.004 0 00-.813-.312zM38.875 17a1.008 1.008 0 00-.594.281l-6.75 6.782a.996.996 0 00-.562.562l-.375.375.406.438c.098.203.266.37.469.468l6.812 6.813c.399.398 1.04.398 1.438 0a1.014 1.014 0 000-1.438L34.437 26H49c.36.004.695-.184.879-.496a1.01 1.01 0 000-1.008c-.184-.312-.52-.5-.879-.496H34.437l5.282-5.281c.324-.301.41-.778.215-1.172A.996.996 0 0038.875 17zM25 23a1.999 1.999 0 100 4 1.999 1.999 0 100-4zm0 7.594l-.5.5-.094.062a1.012 1.012 0 00-.25.282l-6.875 6.843a1.014 1.014 0 000 1.438c.399.398 1.04.398 1.438 0L24 34.437V49c-.004.36.184.695.496.879.313.18.695.18 1.008 0 .312-.184.5-.52.496-.879V34.437l5.281 5.282c.399.398 1.04.398 1.438 0a1.014 1.014 0 000-1.438l-6.875-6.843a1.16 1.16 0 00-.219-.22z"/>
</svg>
