<svg xmlns="http://www.w3.org/2000/svg" viewBox="0 0 50 50">
  <path d="M5.813 0A1 1 0 005 1v44c0 .55.45 1 1 1h3v3c0 .55.45 1 1 1h34c.55 0 1-.45 1-1V5c0-.55-.45-1-1-1h-3V1c0-.55-.45-1-1-1H5.813zM7 2h32v42H7zm34 4h2v42H11v-2h29c.55 0 1-.45 1-1zm-17.813 4.5c-3.699 0-6.187 2.29-6.687 5.688 0 .199.113.406.313.406l2.28.406c.2 0 .407-.113.407-.313.398-2.199 1.688-3.375 3.688-3.375 2.101 0 3.5 1.282 3.5 3.282 0 1.3-.387 2.113-1.688 3.812l-2.406 3.282c-.801 1-1.094 1.82-1.094 3.218v1.5c0 .2.21.407.313.407h2.375c.3 0 .406-.208.406-.407v-1.093c0-1.2.207-1.72.906-2.72l2.406-3.28c1.2-1.7 1.782-3.02 1.782-4.72 0-3.6-2.602-6.093-6.5-6.093zm-1.375 21c-.3 0-.406.207-.406.406V35c0 .3.207.406.407.406H24.5c.3 0 .406-.207.406-.406v-3.094c0-.3-.207-.406-.406-.406z"/>
</svg>
