<svg xmlns="http://www.w3.org/2000/svg" viewBox="0 0 50 50">
  <path d="M9 4C6.25 4 4 6.25 4 9v1.832a1 1 0 000 .326V44a1 1 0 001 1h15.586l3.707 3.707a1 1 0 001.414 0L29.414 45H45a1 1 0 001-1V11.168a1 1 0 000-.326V9c0-2.75-2.25-5-5-5H9zm0 2h32c1.668 0 3 1.332 3 3v1H6V9c0-1.668 1.332-3 3-3zm-3 6h38v31H29a1 1 0 00-.707.293L25 46.586l-3.293-3.293A1 1 0 0021 43H6V12zm6 5a1 1 0 100 2h3a1 1 0 100-2h-3zm7 0a1 1 0 100 2h19a1 1 0 100-2H19zm-7 6a1 1 0 100 2h3a1 1 0 100-2h-3zm7 0a1 1 0 100 2h19a1 1 0 100-2H19zm-7 6a1 1 0 100 2h3a1 1 0 100-2h-3zm7 0a1 1 0 100 2h19a1 1 0 100-2H19zm-7 6a1 1 0 100 2h3a1 1 0 100-2h-3zm7 0a1 1 0 100 2h19a1 1 0 100-2H19z"/>
</svg>
