<svg xmlns="http://www.w3.org/2000/svg" viewBox="0 0 50 50">
  <path d="M25 3.04c-1.033 0-2.067.499-2.637 1.501L1.406 41.398C.267 43.402 1.741 46 4.045 46h41.91c2.304 0 3.777-2.599 2.639-4.604L27.637 4.541c-.57-1.002-1.604-1.502-2.637-1.502zm0 1.92c.341 0 .682.191.898.571l20.957 36.854h-.001c.431.76-.06 1.615-.899 1.615H4.045c-.838 0-1.331-.855-.9-1.613L24.102 5.53c.216-.38.557-.57.898-.57zM23.998 17A.999.999 0 0023 18v14c0 .552.443 1 .996 1H26a.999.999 0 00.998-1L27 18c0-.552-.445-1-.998-1h-2.004zm0 19A.999.999 0 0023 37v2c0 .552.445 1 .998 1h2.004A.999.999 0 0027 39v-2c0-.552-.445-1-.998-1h-2.004z"/>
</svg>
