<svg xmlns="http://www.w3.org/2000/svg" viewBox="0 0 50 50">
  <path d="M3 5C1.355 5 0 6.355 0 8v37h50V11c0-1.645-1.355-3-3-3H17.875l-.441-1.117A3.013 3.013 0 0014.644 5zm0 2h11.645c.414 0 .777.246.93.629L16.522 10H47c.566 0 1 .434 1 1v32H2V8c0-.566.434-1 1-1zm5 16l1.844 7.047h1.687l1.156-4.317h.09l1.176 4.317h1.68L17.473 23h-1.848l-.922 4.672h-.086L13.45 23h-1.433l-1.13 4.672h-.09L9.86 23zm11.313 0l1.843 7.047h1.688L24 25.73h.09l1.176 4.317h1.675L28.785 23h-1.848l-.921 4.672h-.086L24.762 23h-1.434L22.2 27.672h-.09L21.172 23zm11.312 0l1.844 7.047h1.687l1.157-4.317h.09l1.175 4.317h1.68L40.098 23H38.25l-.922 4.672h-.086L36.074 23h-1.433l-1.13 4.672h-.09L32.485 23zm11.637 5.344c-.617 0-.985.383-.985.937 0 .547.368.926.985.926s.984-.379.984-.926c0-.554-.367-.937-.984-.937z"/>
</svg>
