<svg xmlns="http://www.w3.org/2000/svg" viewBox="0 0 50 50">
  <path d="M8 7c-1.654 0-3 1.346-3 3v30c0 1.654 1.346 3 3 3h22.889c1.024-.704 2.311-1.382 3.736-2H8c-.552 0-1-.449-1-1V15h38v23.12a16.441 16.441 0 012-.118V10c0-1.654-1.346-3-3-3H8zm0 2h36c.552 0 1 .449 1 1v3H7v-3c0-.551.448-1 1-1zm1 1a1 1 0 00-1 1 1 1 0 001 1 1 1 0 001-1 1 1 0 00-1-1zm3 0a1 1 0 00-1 1 1 1 0 001 1 1 1 0 001-1 1 1 0 00-1-1zm3 0a1 1 0 00-1 1 1 1 0 001 1 1 1 0 001-1 1 1 0 00-1-1zm23.365 20c-.757 0-1.505.381-1.918.988-.412.607-.525 1.351-.441 2.121.157 1.443.961 3.095 1.978 4.746-.237.799-.434 1.577-.738 2.39-.307.817-.684 1.559-1.04 2.333-2.104.833-4.03 1.751-5.175 2.854a3.39 3.39 0 00-1.023 2.132c-.074.779.175 1.744 1.031 2.202.729.392 1.487.263 2.168-.008.682-.272 1.338-.736 1.897-1.367.944-1.07 1.8-2.593 2.597-4.243.504-.192.934-.414 1.455-.586 1.023-.335 2.035-.565 3.043-.806C43.714 44.012 45.334 45 47.11 45c.807 0 1.464-.089 2.036-.473.57-.383.855-1.113.855-1.699 0-1.524-1.334-2.797-2.98-2.828-1.198-.022-2.686.191-4.272.53-.482-.444-.99-.78-1.432-1.305-.45-.536-.744-1.123-1.125-1.698.456-1.668.788-3.252.809-4.511C41.028 31.31 39.808 30 38.365 30zm0 2c.132 0 .647.237.635.984-.008.478-.179 1.23-.295 1.893-.306-.725-.658-1.498-.71-1.986-.048-.431.044-.687.107-.78.063-.092.06-.111.263-.111zm1.059 7.977c.138.173.218.362.361.533.204.242.468.399.682.633-.548.152-1.078.26-1.627.437.086-.219.196-.412.28-.633.123-.33.19-.64.304-.97zM46.98 42c.806.015 1.02.32 1.02.828 0 .049.006.037.012.045-.038.02-.313.127-.903.127-.596 0-1.33-.403-2.047-.773.664-.086 1.437-.236 1.918-.227zm-12.337 3.479c-.35.55-.706 1.212-1.038 1.587-.356.403-.79.697-1.136.834-.346.138-.55.07-.483.106l-.002-.002-.002-.002c.053.028-.01.03.016-.25.026-.28.2-.669.42-.88.428-.413 1.296-.906 2.225-1.393z"/>
</svg>
