<svg xmlns="http://www.w3.org/2000/svg" viewBox="0 0 32 32">
  <path d="M10.293 5.793L8 8.086 6.707 6.793 5.293 8.207 8 10.914l3.707-3.707-1.414-1.414zM14 7v2h13V7H14zm-3.707 5.793L8 15.086l-1.293-1.293-1.414 1.414L8 17.914l3.707-3.707-1.414-1.414zM14 15v2h9v-2h-9zm12 3c-1.25 0-2.315.505-2.998 1.273C22.319 20.043 22 21.028 22 22s.319 1.958 1.002 2.727c.037.042.101.06.14.101C21.303 25.855 20 27.752 20 30h2c0-2.22 1.78-4 4-4 2.22 0 4 1.78 4 4h2c0-2.248-1.302-4.145-3.143-5.172.04-.04.104-.06.141-.101C29.681 23.957 30 22.972 30 22s-.319-1.958-1.002-2.727C28.315 18.505 27.25 18 26 18zm0 2c.75 0 1.185.245 1.502.602.317.356.498.87.498 1.398 0 .528-.181 1.042-.498 1.398-.317.357-.752.602-1.502.602s-1.185-.245-1.502-.602C24.181 23.042 24 22.528 24 22c0-.528.181-1.042.498-1.398.317-.357.752-.602 1.502-.602zm-15.707.793L8 23.086l-1.293-1.293-1.414 1.414L8 25.914l3.707-3.707-1.414-1.414zM14 23v2h5v-2h-5z"/>
</svg>
