<svg xmlns="http://www.w3.org/2000/svg" viewBox="0 0 50 50">
  <path d="M25 12c-8.27 0-15.332 5.293-17.938 12.688a1.008 1.008 0 101.907.656C11.297 18.734 17.582 14 25 14c7.352 0 13.594 4.668 15.969 11.188a1 1 0 00.765.69.995.995 0 00.97-.355.994.994 0 00.14-1.023C40.187 17.207 33.199 12 25 12zm0 5c-7.719 0-14 6.281-14 14-.004.36.184.695.496.879.313.18.695.18 1.008 0 .312-.184.5-.52.496-.879 0-6.637 5.363-12 12-12s12 5.363 12 12c-.004.36.184.695.496.879.313.18.695.18 1.008 0 .312-.184.5-.52.496-.879 0-7.719-6.281-14-14-14zm0 5c-4.957 0-9 4.043-9 9s4.043 9 9 9 9-4.043 9-9-4.043-9-9-9zm0 2c3.879 0 7 3.121 7 7s-3.121 7-7 7-7-3.121-7-7 3.121-7 7-7z"/>
</svg>
