<svg xmlns="http://www.w3.org/2000/svg" viewBox="0 0 50 50">
  <path d="M25 1c-6.637 0-12 5.363-12 12v5H9c-1.645 0-3 1.355-3 3v24c0 1.645 1.355 3 3 3h32c1.645 0 3-1.355 3-3V21c0-1.645-1.355-3-3-3h-4v-5c0-6.637-5.363-12-12-12zm0 2c5.566 0 10 4.434 10 10v5H15v-5c0-5.566 4.434-10 10-10zM9 20h32c.555 0 1 .445 1 1v24c0 .555-.445 1-1 1H9c-.555 0-1-.445-1-1V21c0-.555.445-1 1-1zm16 5c-4.406 0-8 3.594-8 8 0 4.406 3.594 8 8 8 4.406 0 8-3.594 8-8 0-4.406-3.594-8-8-8zm0 2c3.324 0 6 2.676 6 6s-2.676 6-6 6-6-2.676-6-6 2.676-6 6-6zm0 2c-2.2 0-4 1.8-4 4s1.8 4 4 4 4-1.8 4-4c0-.398-.086-.79-.188-1.188-.3.7-1.011 1.188-1.812 1.188-1.102 0-2-.898-2-2 0-.8.488-1.512 1.188-1.813-.399-.101-.79-.187-1.188-.187z"/>
</svg>
