<svg xmlns="http://www.w3.org/2000/svg" viewBox="0 0 50 50">
  <path d="M43.984 1.986A1 1 0 0043 3v7.7C38.785 5.401 32.288 2 25 2 12.31 2 2 12.31 2 25s10.31 23 23 23 23-10.31 23-23a1 1 0 10-2 0c0 11.61-9.39 21-21 21S4 36.61 4 25 13.39 4 25 4c6.693 0 12.635 3.13 16.48 8H34a1 1 0 100 2h11V3a1 1 0 00-1.016-1.014zM25 13c-3.321 0-6 2.795-6 6.176V21h-1c-1.093 0-2 .907-2 2v10c0 1.093.907 2 2 2h14c1.093 0 2-.907 2-2V23c0-1.093-.907-2-2-2h-1v-1.824C31 15.795 28.321 13 25 13zm0 2c2.203 0 4 1.839 4 4.176V21h-8v-1.824C21 16.839 22.797 15 25 15zm-7 8h1.832a1 1 0 00.326 0h9.674a1 1 0 00.326 0H32v10H18V23zm7 2a2 2 0 00-2 2 2 2 0 001 1.73V30a1 1 0 002 0v-1.271A2 2 0 0027 27a2 2 0 00-2-2z"/>
</svg>
