<svg xmlns="http://www.w3.org/2000/svg" viewBox="0 0 50 50">
  <path d="M25 3c-.55 0-1 .45-1 1s.45 1 1 1 1-.45 1-1-.45-1-1-1zm0 4c-.55 0-1 .45-1 1s.45 1 1 1 1-.45 1-1-.45-1-1-1zm0 4c-.55 0-1 .45-1 1s.45 1 1 1 1-.45 1-1-.45-1-1-1zm-.094 3.969c-.043.008-.086.02-.125.031A1.002 1.002 0 0024 16v21.563l-6.281-6.282A1.007 1.007 0 0016.78 31a.994.994 0 00-.781.703c-.105.367.004.758.281 1.016l7.875 7.843c.035.055.078.11.125.157.02.023.04.043.063.062a1.204 1.204 0 00.25.157h.031c.02.011.043.023.063.03.039.012.082.024.125.032.105.016.207.016.312 0h.063a.967.967 0 00.25-.094c.132-.066.25-.164.343-.281l7.938-7.906a1.014 1.014 0 000-1.438 1.014 1.014 0 00-1.438 0L26 37.563V16a1 1 0 00-1.094-1.031zM2 33v12c0 1.645 1.355 3 3 3h40c1.645 0 3-1.355 3-3V33h-2v12c0 .566-.434 1-1 1H5c-.566 0-1-.434-1-1V33z"/>
</svg>
