<svg xmlns="http://www.w3.org/2000/svg" viewBox="0 0 50 50">
  <path d="M21 3C11.623 3 4 10.623 4 20c0 9.377 7.623 17 17 17a16.89 16.89 0 009.938-3.234l13.148 13.148 2.828-2.828-13.027-13.027C36.444 28.083 38 24.224 38 20c0-9.377-7.623-17-17-17zm0 2c8.296 0 15 6.704 15 15s-6.704 15-15 15S6 28.296 6 20 12.704 5 21 5zm-3.533 8C14.375 13 12 15.366 12 18.457c0 1.707.699 3.144 1.637 4.313.938 1.168 2.112 2.12 3.213 3.025v-.002c1.008.832 3.502 2.967 3.502 2.967a1 1 0 001.3 0s2.492-2.135 3.5-2.965c1.1-.905 2.273-1.857 3.211-3.025C29.301 21.6 30 20.164 30 18.457 30 15.367 27.626 13 24.533 13c-1.562 0-2.685.795-3.535 1.547-.848-.753-1.97-1.547-3.531-1.547zm0 2c1.034 0 2.183.867 2.804 1.521a1 1 0 001.45.002c.626-.656 1.778-1.523 2.812-1.523C26.696 15 28 16.3 28 18.457c0 1.18-.443 2.121-1.197 3.06-.754.94-1.821 1.827-2.922 2.733-.864.711-2.246 1.896-2.881 2.44-.637-.545-2.018-1.73-2.879-2.44a1 1 0 00-.002 0c-1.102-.906-2.17-1.794-2.924-2.732-.753-.94-1.195-1.88-1.195-3.061C14 16.3 15.305 15 17.467 15z"/>
</svg>
