<svg xmlns="http://www.w3.org/2000/svg" viewBox="0 0 50 50">
  <path d="M5.8 5A2.818 2.818 0 003 7.8V44a1 1 0 001 1h30.502l-1.738-2H5V14h40v15h2V7.8C47 6.268 45.733 5 44.2 5H5.8zm0 2h38.4c.466 0 .8.334.8.8V12H5V7.8c0-.466.334-.8.8-.8zM10 20a1 1 0 00-1 1 1 1 0 001 1 1 1 0 001-1 1 1 0 00-1-1zm5 0v2h25v-2H15zm-5 7a1 1 0 00-1 1 1 1 0 001 1 1 1 0 001-1 1 1 0 00-1-1zm5 0v2h20v-2H15zm23 4v9h-5.193l1.44 1.656 7.253 8.348L50.193 40H45v-9h-7zm2 2h3v9h2.807L41.5 46.957 37.193 42H40v-9zm-30 1a1 1 0 00-1 1 1 1 0 001 1 1 1 0 001-1 1 1 0 00-1-1zm5 0v2h20v-2H15z"/>
</svg>
