<svg xmlns="http://www.w3.org/2000/svg" viewBox="0 0 50 50">
  <path d="M7 7c-1.654 0-3 1.346-3 3v30c0 1.654 1.346 3 3 3h27v-2H7c-.551 0-1-.449-1-1V15h38v7.39c.412.196.804.431 1.15.733.284-.006.569.016.85.06V10c0-1.654-1.346-3-3-3H7zm0 2h36c.551 0 1 .449 1 1v3H6v-3c0-.551.449-1 1-1zm1 1a1 1 0 00-1 1 1 1 0 001 1 1 1 0 001-1 1 1 0 00-1-1zm3 0a1 1 0 00-1 1 1 1 0 001 1 1 1 0 001-1 1 1 0 00-1-1zm3 0a1 1 0 00-1 1 1 1 0 001 1 1 1 0 001-1 1 1 0 00-1-1zm27.9 13.9c-1.05 0-1.884.625-2.41 1.473-.976-.31-2.043-.218-2.842.467-.806.691-1.038 1.714-.923 2.697-.953.4-1.685 1.177-1.9 2.147a1 1 0 00-.016.091c-.121.966.299 1.861.99 2.543-.453.906-.592 1.958-.067 2.877.297.519.75.863 1.268 1.09V49a1 1 0 001.514.857L42 47.166l4.486 2.691A1 1 0 0048 49V36.893c.228-.175.44-.37.613-.612a1 1 0 00.055-.086c.512-.896.383-1.916-.04-2.808.894-.661 1.476-1.61 1.366-2.598a1 1 0 00-.017-.105c-.224-1.007-.98-1.739-1.9-2.153.112-.981-.122-2.001-.927-2.691-.832-.713-1.89-.734-2.841-.469-.533-.813-1.333-1.47-2.409-1.47zm0 2c.456 0 .785.275.963.75a1 1 0 00.825.643h.001c.09.047.148.107.41.107a1 1 0 00.448-.105c.532-.266.924-.26 1.303.064.396.34.476.758.314 1.19a1 1 0 00.176 1c.037.072.107.21.254.357a1 1 0 00.49.27c.563.125.783.37.914.916.042.47-.02.707-.74.969A1 1 0 0046.6 33v.4a1 1 0 00.187.58c.288.404.295.854.139 1.17-.31.39-.73.604-1.102.557a1 1 0 00-.832.285l-.299.301A1 1 0 0044.4 37c0 .53-.203.794-.652.963a1 1 0 00-.092.04c.143-.072-.059-.003-.256-.003-.266 0-.51-.124-.793-.406a1 1 0 00-.707-.293h-.5a1 1 0 00-.707.293c-.403.403-.753.515-1.142.369-.381-.143-.65-.58-.65-.963a1 1 0 00-.294-.707l-.3-.3a1 1 0 00-.83-.286c-.393.05-.812-.16-1.008-.504-.181-.317-.157-.801.144-1.223a1 1 0 00.188-.58V33a1 1 0 00-.504-.87c-.27-.153-.5-.678-.48-1.058.137-.536.376-.832.794-.879a1 1 0 00.596-.287c.144-.144.208-.275.246-.35a1 1 0 00.184-1.007c-.162-.432-.082-.85.314-1.19.385-.33.886-.348 1.168-.146a1 1 0 001.047.072 1 1 0 00.805-.742c.076-.305.474-.643.93-.643zm-5.853 2.471c-.034.02-.066.046-.106.059l.002-.01.104-.049zM46 38.252v8.982l-3.486-2.091a1 1 0 00-1.028 0L38 47.234v-7.93c.238.222.517.407.85.532 1.004.377 1.978.03 2.755-.527.484.374 1.065.691 1.795.691.19 0 .576.038 1.09-.195.713-.282 1.216-.858 1.51-1.553z"/>
</svg>
