<svg xmlns="http://www.w3.org/2000/svg" viewBox="0 0 50 50">
  <path d="M7 7c-1.654 0-3 1.346-3 3v30c0 1.654 1.346 3 3 3h17.871l2-2H7c-.552 0-1-.449-1-1V15h38v10.201l.006.002c.34.07.675.158 1.002.262.05.016.098.039.148.055.276.092.548.191.813.306l.029.012V10c0-1.654-1.346-3-3-3H7zm0 2h36c.552 0 1 .449 1 1v3H6v-3c0-.551.448-1 1-1zm1 1a1 1 0 00-1 1 1 1 0 001 1 1 1 0 001-1 1 1 0 00-1-1zm3 0a1 1 0 00-1 1 1 1 0 001 1 1 1 0 001-1 1 1 0 00-1-1zm3 0a1 1 0 00-1 1 1 1 0 001 1 1 1 0 001-1 1 1 0 00-1-1zm28 17c-4.4 0-8 3.6-8 8 0 .5.1 1 .2 1.5l-6.8 6.8c-.2.2-.3.4-.3.7v5c0 .6.4 1 1 1H33c.3 0 .5-.1.7-.3l.7-.7H37c.6 0 1-.4 1-1v-2h2c.6 0 1-.4 1-1v-2.1c.3.1.7.1 1 .1 4.4 0 8-3.6 8-8s-3.6-8-8-8zm0 2c3.3 0 6 2.7 6 6s-2.7 6-6 6-6-2.7-6-6 2.7-6 6-6zm-30 1a2 2 0 00-2 2 2 2 0 002 2 2 2 0 002-2 2 2 0 00-2-2zm8 0a2 2 0 00-2 2 2 2 0 002 2 2 2 0 002-2 2 2 0 00-2-2zm8 0a2 2 0 00-2 2 2 2 0 002 2 2 2 0 002-2 2 2 0 00-2-2zm16 1c-1.1 0-2 .9-2 2s.9 2 2 2 2-.9 2-2-.9-2-2-2zm-9.2 7.6c.3.5.6 1 1 1.5l-3.6 3.6c-.4.4-.4 1 0 1.4.2.2.5.3.7.3.2 0 .5-.1.7-.3l3.7-3.7c.5.4 1.1.8 1.7 1h-.1V44h-2c-.6 0-1 .4-1 1v2h-2c-.3 0-.5.1-.7.3l-.7.7H29v-3.6l5.8-5.8z"/>
</svg>
