<svg xmlns="http://www.w3.org/2000/svg" viewBox="0 0 30 30">
  <path d="M15 4c-.285 0-.556.063-.8.17L4.644 8.072A.995.995 0 004 9c0 .426.27.784.645.928l9.597 3.922a1.985 1.985 0 001.518 0l9.597-3.922A.995.995 0 0026 9a.995.995 0 00-.645-.928L15.801 4.17A1.981 1.981 0 0015 4zm-7.928 9.08l-2.427.992A.995.995 0 004 15c0 .426.27.784.645.928l9.597 3.922a1.985 1.985 0 001.518 0l9.597-3.922A.995.995 0 0026 15a.995.995 0 00-.645-.928l-2.427-.992-6.41 2.62a3.968 3.968 0 01-3.034 0l-6.412-2.62zm0 6l-2.427.992A.995.995 0 004 21c0 .426.27.784.645.928l9.597 3.922a1.985 1.985 0 001.518 0l9.597-3.922A.995.995 0 0026 21a.995.995 0 00-.645-.928l-2.427-.992-6.41 2.62a3.968 3.968 0 01-3.034 0l-6.412-2.62z"/>
</svg>
