<svg xmlns="http://www.w3.org/2000/svg" viewBox="0 0 50 50">
  <path d="M25 1c-1.074 0-2.145.105-3 .313-.43.101-.777.214-1.125.406-.176.093-.36.218-.531.406-.09.102-.184.246-.25.406-.633.137-1.262.313-1.875.5a13.745 13.745 0 00-4.25-.937c-.32-.02-.656-.035-1-.031-2.395.035-5.219.75-7.688 3.218C.023 10.54 2.648 17.344 3.031 18.25a24.168 24.168 0 00-.5 1.844c-.16.066-.304.16-.406.25a1.948 1.948 0 00-.406.531c-.192.348-.305.695-.407 1.125-.207.855-.312 1.926-.312 3s.105 2.145.313 3c.101.43.214.777.406 1.125.093.176.218.36.406.531.102.09.246.184.406.25.137.63.313 1.235.5 1.844-.383.906-3.008 7.71 2.25 12.969 5.258 5.258 12.063 2.633 12.969 2.25.594.183 1.2.336 1.813.468.066.18.183.329.28.438.173.188.356.313.532.406.348.192.695.305 1.125.407.855.207 1.926.312 3 .312s2.145-.105 3-.313c.43-.101.777-.214 1.125-.406.176-.093.36-.218.531-.406.09-.102.184-.246.25-.406a22.486 22.486 0 001.844-.5c.906.383 7.71 3.008 12.969-2.25 5.203-5.203 2.676-11.914 2.25-12.938.191-.613.363-1.238.5-1.875.16-.066.304-.16.406-.25.188-.172.313-.355.406-.531.192-.348.305-.695.407-1.125.207-.855.312-1.926.312-3s-.105-2.145-.313-3c-.101-.43-.214-.777-.406-1.125a1.948 1.948 0 00-.406-.531 1.501 1.501 0 00-.406-.25 22.486 22.486 0 00-.5-1.844c.383-.906 3.008-7.71-2.25-12.969-2.469-2.468-5.293-3.183-7.688-3.218-.343-.004-.68.011-1 .03-2.23.134-3.86.766-4.281.938a23.687 23.687 0 00-1.844-.5 1.501 1.501 0 00-.25-.406 1.948 1.948 0 00-.531-.406c-.348-.192-.695-.305-1.125-.407C27.145 1.105 26.074 1 25 1zm0 2c.926 0 1.855.094 2.5.25.234.059.375.137.5.188v9.687a1.002 1.002 0 00-.094.844c-.312-.11-1.152-.375-2.906-.375-1.855 0-2.703.312-2.969.406a.999.999 0 00-.031-.813V3.876c.105-.148.172-.32.188-.5.093-.043.164-.09.312-.125.645-.156 1.574-.25 2.5-.25zM13.094 4.031a10.83 10.83 0 012.125.157c-4.832 2.277-8.754 6.167-11.031 11-.403-2.215-.344-5.594 2.53-8.47 2.071-2.07 4.403-2.66 6.376-2.687zm23 0c2.12-.136 4.824.324 7.187 2.688 2.89 2.89 2.942 6.285 2.532 8.5a23.085 23.085 0 00-11-11.031c.394-.07.824-.125 1.28-.157zM20 4.594V13a12.987 12.987 0 00-6.969 7H4.594C6.445 12.418 12.418 6.445 20 4.594zm10 .031A21.002 21.002 0 0145.375 20H37c-1.316-3.156-3.844-5.648-7-6.969zm-9.688 10.438c.356.566.981.937 1.688.937.129.004.254-.02.375-.063 0 0 .762-.343 2.625-.343s2.625.344 2.625.344c.121.042.246.066.375.062a1.99 1.99 0 001.688-.938 11.017 11.017 0 015.25 5.25A1.99 1.99 0 0034 22c-.004.129.02.254.063.375 0 0 .343.762.343 2.625s-.343 2.625-.343 2.625A1.023 1.023 0 0034 28c0 .707.371 1.332.938 1.688a11 11 0 01-5.25 5.25A1.99 1.99 0 0028 34a1.023 1.023 0 00-.375.063s-.762.343-2.625.343-2.625-.343-2.625-.343A1.023 1.023 0 0022 34c-.715 0-1.332.39-1.688.969a11.098 11.098 0 01-5.25-5.282A1.99 1.99 0 0016 28a1.023 1.023 0 00-.063-.375s-.343-.762-.343-2.625.344-2.625.344-2.625c.042-.121.066-.246.062-.375 0-.695-.355-1.328-.906-1.688 1.086-2.3 2.914-4.164 5.219-5.25zM3.595 22H14c-.086.242-.406 1.102-.406 3 0 1.754.265 2.594.375 2.906a.985.985 0 00-.906.094H3.437c-.05-.125-.128-.266-.187-.5C3.094 26.855 3 25.926 3 25c0-.926.094-1.855.25-2.5.055-.223.137-.352.188-.469.054-.008.105-.015.156-.031zM36 22h10.563c.05.125.128.266.187.5.156.645.25 1.574.25 2.5 0 .926-.094 1.855-.25 2.5a1.889 1.889 0 01-.125.375h-.094a.99.99 0 00-.375.125H36c.086-.242.406-1.102.406-3s-.32-2.758-.406-3zM4.625 30h8.406A12.969 12.969 0 0020 36.969v8.406C12.43 43.52 6.477 37.575 4.625 30zm32.344 0h8.437A21.033 21.033 0 0130 45.406V37a13.038 13.038 0 006.969-7zm8.843 4.781c.41 2.215.36 5.61-2.53 8.5-2.891 2.89-6.286 2.942-8.5 2.532 4.84-2.278 8.75-6.2 11.03-11.032zm-41.624.032a23.085 23.085 0 0011.03 11c-2.214.41-5.609.359-8.5-2.532-2.874-2.875-2.933-6.254-2.53-8.468zM28 36a.991.991 0 000 .688v9.53a1.04 1.04 0 00-.094.376c-.11.047-.215.11-.406.156-.645.156-1.574.25-2.5.25-.926 0-1.855-.094-2.5-.25a1.889 1.889 0 01-.375-.125 1.037 1.037 0 00-.125-.469V36.97c.195-.274.242-.625.125-.938.332.114 1.164.375 2.875.375 1.898 0 2.758-.32 3-.406z"/>
</svg>
