<svg xmlns="http://www.w3.org/2000/svg" viewBox="0 0 50 50">
  <path d="M3 7a1 1 0 00-1 1v34a1 1 0 001 1h44a1 1 0 001-1V8a1 1 0 00-1-1H3zm1 2h42v32H4V9zm21 4l-3.117 2.871-4.297-.578-.75 4.066L13 21.293 14.906 25 13 28.707l3.836 1.934.75 4.066 4.297-.578L25 37l1.383-1.271v-.002l1.734-1.598 4.297.578.75-4.066L37 28.707 35.094 25 37 21.29l-3.836-1.935-.75-4.066-4.297.578L25 13zm0 2.719V34.28l-2.457-2.256-3.34.45-.582-3.168-2.922-1.479L17.156 25l-1.412-2.744h-.002l-.043-.084 2.922-1.477.586-3.168 3.34.45L25 15.719z"/>
</svg>
