<svg xmlns="http://www.w3.org/2000/svg" viewBox="0 0 50 50">
  <path d="M6 4c-1.093 0-2 .907-2 2v8c0 1.093.907 2 2 2h8c1.093 0 2-.907 2-2V6c0-1.093-.907-2-2-2H6zm15 0c-1.093 0-2 .907-2 2v8c0 1.093.907 2 2 2h8c1.093 0 2-.907 2-2V6c0-1.093-.907-2-2-2h-8zm15 0c-1.093 0-2 .907-2 2v8c0 1.093.907 2 2 2h8c1.093 0 2-.907 2-2V6c0-1.093-.907-2-2-2h-8zM6 6h8v8H6V6zm15 0h8v8h-8V6zm15 0h8v8h-8V6zM6 19c-1.093 0-2 .907-2 2v8c0 1.093.907 2 2 2h8c1.093 0 2-.907 2-2v-8c0-1.093-.907-2-2-2H6zm15 0c-1.093 0-2 .907-2 2v8c0 1.093.907 2 2 2h8c1.093 0 2-.907 2-2v-8c0-1.093-.907-2-2-2h-8zm15 0c-1.093 0-2 .907-2 2v8c0 1.093.907 2 2 2h8c1.093 0 2-.907 2-2v-8c0-1.093-.907-2-2-2h-8zM6 21h8v8H6v-8zm15 0h8v8h-8v-8zm15 0h8v8h-8v-8zM6 34c-1.093 0-2 .907-2 2v8c0 1.093.907 2 2 2h8c1.093 0 2-.907 2-2v-8c0-1.093-.907-2-2-2H6zm15 0c-1.093 0-2 .907-2 2v8c0 1.093.907 2 2 2h8c1.093 0 2-.907 2-2v-8c0-1.093-.907-2-2-2h-8zm15 0c-1.093 0-2 .907-2 2v8c0 1.093.907 2 2 2h8c1.093 0 2-.907 2-2v-8c0-1.093-.907-2-2-2h-8zM6 36h8v8H6v-8zm15 0h8v8h-8v-8zm15 0h8v8h-8v-8z"/>
</svg>
