<svg xmlns="http://www.w3.org/2000/svg" viewBox="0 0 50 50">
  <path d="M25 0c-1.035 0-2.945.246-4.594 1.625-.015.016-.054.027-.062.031-.559.426-1.93 1.633-3.907 3.344H8.906A.996.996 0 008 6v6.469C3.941 16.059.344 19.25.344 19.25A.986.986 0 000 20v29c0 .55.45 1 1 1h48c.55 0 1-.45 1-1V20a.986.986 0 00-.344-.75S46.06 16.059 42 12.469V6c0-.55-.45-1-1-1h-7.5c-1.898-1.715-3.285-2.918-3.844-3.344-.008-.004-.047-.015-.062-.031C27.945.246 26.035 0 25 0zm0 2c.75 0 2.207.18 3.344 1.156.02.012.043.024.062.031.117.086 1.32 1.157 2.063 1.813H19.5c.746-.648 1.977-1.727 2.094-1.813a.466.466 0 00.062-.03C22.793 2.18 24.25 2 25 2zM10 7h6.438c.19.059.402.059.593 0H40v5.5a.995.995 0 000 .656v13.656l-6.313 4.97c-1.289-1.016-3.695-2.88-4-3.126l-.062-.031A7.433 7.433 0 0025 27c-1.121 0-2.89.344-4.594 1.594l-.031.031c-.344.254-2.773 2.152-4.063 3.156L10 26.813v-13.75a1.016 1.016 0 000-.407zm15 3.188l-6.719 6.718 1.438 1.407L24 14.03V24h2v-9.969l4.281 4.281 1.438-1.406zM8 15.125V25.25l-6-4.719v-.093c.238-.211 3.148-2.79 6-5.313zm34 0c2.852 2.523 5.762 5.102 6 5.313v.093l-6 4.719zM2 23.094l12.688 9.968c-1.829 1.43-2.626 2.032-4.813 3.75C5.871 39.962 3.165 42.082 2 43zm46 0V43.03c-1.668-1.308-7.79-6.12-12.688-9.968zM25 29c.75 0 2.105.172 3.375 1.188C29.922 31.425 47.496 45.168 48 45.563V48H2v-2.438c.262-.207 4.45-3.507 9.094-7.156 4.785-3.761 9.867-7.722 10.5-8.187C22.89 29.269 24.32 29 25 29z"/>
</svg>
