<svg xmlns="http://www.w3.org/2000/svg" viewBox="0 0 50 50">
  <path d="M25 2C12.31 2 2 12.31 2 25s10.31 23 23 23 23-10.31 23-23S37.69 2 25 2zm0 2c11.61 0 21 9.39 21 21s-9.39 21-21 21S4 36.61 4 25 13.39 4 25 4zm.5 4.008c-1.555 0-2.87 1.041-3.316 2.455a3.436 3.436 0 00-1.684-.455c-1.823 0-3.319 1.428-3.463 3.217A1 1 0 0017 13.5a1 1 0 000 .035v.828a3.435 3.435 0 00-1.5-.355c-1.842 0-3.352 1.457-3.469 3.271a1 1 0 00-.031.256v12.06c0 1.205.18 3.953 1.695 6.528C15.21 38.698 18.19 41 23.207 41c3.21 0 5.486-.54 7.234-1.508 1.748-.967 2.91-2.327 3.971-3.765 2.075-2.811 5.67-8.239 5.67-8.239a1 1 0 00.008-.011c1.075-1.674.684-3.928-.963-4.971a1 1 0 00-.01-.006c-1.663-1.027-3.871-.414-4.957 1.262l.037-.053-.197.266V14.5a1 1 0 00-.037-.277c-.145-1.788-1.64-3.215-3.463-3.215-.541 0-1.049.136-1.508.36a1 1 0 00-.03-.145c-.144-1.788-1.64-3.215-3.462-3.215zm0 1.984a1.49 1.49 0 011.502 1.44v.005A1 1 0 0027 11.5V23a1 1 0 002 0v-8.582a1.488 1.488 0 011.5-1.426c.823 0 1.47.632 1.502 1.445A1 1 0 0032 14.5V27a1 1 0 001.803.596l2-2.696a1 1 0 00.037-.05c.537-.829 1.558-1.054 2.22-.649.666.427.88 1.367.348 2.194-.01.015-3.61 5.439-5.605 8.142a1 1 0 000 .002c-1.006 1.363-1.945 2.437-3.33 3.203C28.087 38.51 26.195 39 23.207 39c-4.438 0-6.562-1.81-7.787-3.893C14.195 33.025 14 30.57 14 29.596v-12.06a1 1 0 00-.004-.083 1.49 1.49 0 011.504-1.46c.816 0 1.458.62 1.5 1.425V24a1 1 0 002 0V13.5a1 1 0 00-.002-.059 1.49 1.49 0 011.502-1.449c.816 0 1.458.622 1.5 1.426V23a1 1 0 002 0V11.5a1 1 0 00-.002-.059A1.49 1.49 0 0125.5 9.992z"/>
</svg>
