<svg xmlns="http://www.w3.org/2000/svg" viewBox="0 0 50 50">
  <path d="M16 2c-1.645 0-3 1.355-3 3v2H2.906c-.55.027-.98.496-.953 1.047.027.55.496.98 1.047.953h10v2c0 1.645 1.355 3 3 3h2c1.645 0 3-1.355 3-3V5c0-1.645-1.355-3-3-3zm0 2h2c.566 0 1 .434 1 1v6c0 .566-.434 1-1 1h-2c-.566 0-1-.434-1-1V8.187a1.016 1.016 0 000-.406V5c0-.566.434-1 1-1zm6 3v2h25c.36.004.695-.184.879-.496a1.01 1.01 0 000-1.008c-.184-.312-.52-.5-.879-.496zm12 12c-1.645 0-3 1.355-3 3v2H2.906c-.55.027-.98.496-.953 1.047.027.55.496.98 1.047.953h28v2c0 1.645 1.355 3 3 3h2c1.645 0 3-1.355 3-3v-6c0-1.645-1.355-3-3-3zm0 2h2c.566 0 1 .434 1 1v6c0 .566-.434 1-1 1h-2c-.566 0-1-.434-1-1v-2.813a1.016 1.016 0 000-.406V22c0-.566.434-1 1-1zm6 3v2h7c.36.004.695-.184.879-.496a1.01 1.01 0 000-1.008c-.184-.312-.52-.5-.879-.496zM13 36c-1.645 0-3 1.355-3 3v2H2.812c-.55.05-.957.543-.906 1.094.051.55.543.957 1.094.906h7v2c0 1.645 1.355 3 3 3h2c1.645 0 3-1.355 3-3v-6c0-1.645-1.355-3-3-3zm0 2h2c.566 0 1 .434 1 1v6c0 .566-.434 1-1 1h-2c-.566 0-1-.434-1-1v-2.813a1.016 1.016 0 000-.406V39c0-.566.434-1 1-1zm6 3v2h28c.36.004.695-.184.879-.496a1.01 1.01 0 000-1.008c-.184-.312-.52-.5-.879-.496z"/>
</svg>
