<svg xmlns="http://www.w3.org/2000/svg" viewBox="0 0 50 50">
  <path d="M24.984 1.986A1 1 0 0024 3v15.586l-5.293-5.293a1 1 0 00-.717-.303 1 1 0 00-.697 1.717l6.912 6.912a1 1 0 00.191.192l.604.603.607-.607a1 1 0 00.19-.19l6.91-6.91a1 1 0 10-1.414-1.414L26 18.586V3a1 1 0 00-1.016-1.014zM3 21a1 1 0 100 2h6c2.22 0 4 1.78 4 4v7.586l-4.293-4.293a1 1 0 00-.717-.303 1 1 0 00-.697 1.717l5.912 5.912a1 1 0 00.191.192l.604.603.607-.607a1 1 0 00.186-.184 1 1 0 00.004-.006l5.91-5.91a1 1 0 00-.717-1.72 1 1 0 00-.697.306L15 34.586V27c0-3.302-2.698-6-6-6H3zm38 0c-3.302 0-6 2.698-6 6v7.586l-4.293-4.293a1 1 0 00-.717-.303 1 1 0 00-.697 1.717l5.912 5.912a1 1 0 00.191.192l.604.603.607-.607a1 1 0 00.186-.184 1 1 0 00.004-.006l5.91-5.91a1 1 0 10-1.414-1.414L37 34.586V27c0-2.22 1.78-4 4-4h6a1 1 0 100-2h-6zM2.984 37.986A1 1 0 002 39v9h46v-9a1 1 0 10-2 0v7H4v-7a1 1 0 00-1.016-1.014z"/>
</svg>
