<svg xmlns="http://www.w3.org/2000/svg" viewBox="0 0 50 50">
  <path d="M4.846 6C3.276 6 2 7.298 2 8.893V43a1 1 0 001 1h28.074a21.373 21.373 0 01-1.03-2H4V20h42v7.86c.562.231 1.21.46 2 .685V8.893C48 7.298 46.724 6 45.154 6H4.846zm0 2h40.308c.466 0 .846.4.846.893V18H4V8.893C4 8.4 4.379 8 4.846 8zM19 10v6h24v-6H19zM8 11a2 2 0 00-2 2 2 2 0 002 2 2 2 0 002-2 2 2 0 00-2-2zm6 0a2 2 0 00-2 2 2 2 0 002 2 2 2 0 002-2 2 2 0 00-2-2zm7 1h20v2H21v-2zm19 15.9c-1.5 0-2.5.5-3.7 1.1-1.2.6-2.7 1.3-5.5 1.9l-.8.2v.8c0 13 9.2 17.7 9.5 17.9l.5.2.5-.2c.05-.024.236-.127.523-.31C43.033 48.208 50 42.925 50 31.9v-.8l-.8-.2c-2.1-.45-3.469-.957-4.528-1.435-.353-.16-.673-.315-.973-.465-1.2-.6-2.199-1.1-3.699-1.1zm0 2c1.1 0 1.7.3 2.8.9 1.2.5 2.7 1.3 5.2 1.9-.3 9.3-6.3 13.9-8 15-1.8-1-7.7-5.3-8-15 2.6-.6 4.1-1.4 5.2-1.9 1.1-.6 1.7-.9 2.8-.9z"/>
</svg>
