<svg xmlns="http://www.w3.org/2000/svg" viewBox="0 0 50 50">
  <path d="M5 2C3.348 2 2 3.348 2 5v40c0 1.652 1.348 3 3 3h40c1.652 0 3-1.348 3-3V28l-2 2v15c0 .55-.45 1-1 1h-5V36l-2 2v8H12V28.812c0-.44.371-.812.813-.812H32l2-2H12.812A2.826 2.826 0 0010 28.813V46H5c-.55 0-1-.45-1-1V5c0-.55.45-1 1-1h5v15c0 1.094.906 2 2 2h23c1.094 0 2-.906 2-2V4h.594L46 12.406V16c1.102 0 2 .375 2 .375V12c0-.266-.094-.531-.281-.719l-9-9A1.016 1.016 0 0038 2zm7 2h23v15H12zm16.813 2A1 1 0 0028 7v9c0 .55.45 1 1 1h3c.55 0 1-.45 1-1V7c0-.55-.45-1-1-1h-3.187zM30 8h1v7h-1zm15.938 10a4.11 4.11 0 00-2.907 1.188l-.218.25a.913.913 0 00-.22.187L26.907 35.313a1.02 1.02 0 00-.281.437l-1.594 6a.997.997 0 00.262.957c.25.25.613.352.957.262l6-1.594a1.02 1.02 0 00.438-.281l15.437-15.438.25-.25a.913.913 0 00.188-.218c.105-.106.25-.22.25-.22a4.096 4.096 0 000-5.78A4.038 4.038 0 0045.937 18zm-2.188 3.281l2.969 2.969-15.25 15.25-.063.031-2.937-2.937.031-.063zM6 41v2h2v-2zm36 0v2h2v-2z"/>
</svg>
