<svg xmlns="http://www.w3.org/2000/svg" viewBox="0 0 50 50">
  <path d="M28.992 7c-5.009 0-9.583 2.443-11.78 6.879a6.964 6.964 0 00-3.857-1.156c-3.704 0-6.745 2.888-6.992 6.529C2.581 20.63 0 24.258 0 28.33 0 33.662 4.338 38 9.67 38h14.51c-.11-.652-.18-1.317-.18-2H9.67C5.44 36 2 32.56 2 28.33a7.685 7.685 0 015.627-7.385l.76-.209-.041-1.004a5.015 5.015 0 015.01-5.007c1.337 0 2.596.52 3.542 1.468l1.104 1.106.543-1.465C20.159 11.475 24.355 9 28.992 9c6.148 0 11.15 4.547 11.15 10.695 0 .416-.03.855-.095 1.383l-.139 1.121h1.131l.092-.002A6.91 6.91 0 0148 29.1c0 1.06-.247 2.06-.676 2.959.303.87.52 1.778.615 2.726A8.856 8.856 0 0050 29.1c0-4.561-3.445-8.332-7.871-8.844.01-.191.014-.378.014-.56 0-7.252-5.9-12.696-13.15-12.696zM36 26c-5.511 0-10 4.489-10 10s4.489 10 10 10a9.947 9.947 0 006.322-2.264l5.971 5.971 1.414-1.414-5.97-5.97A9.947 9.947 0 0046 36c0-5.511-4.489-10-10-10zm0 2c4.43 0 8 3.57 8 8s-3.57 8-8 8-8-3.57-8-8 3.57-8 8-8z"/>
</svg>
