<svg xmlns="http://www.w3.org/2000/svg" viewBox="0 0 50 50">
  <path d="M10 0C4.488 0 0 4.488 0 10c0 5.066 3.793 9.23 8.688 9.875L5.28 23.281a1.014 1.014 0 000 1.438c.399.398 1.04.398 1.438 0L9 22.437V30H.906A.996.996 0 000 31v18c0 .55.45 1 1 1h18c.55 0 1-.45 1-1V31c0-.55-.45-1-1-1h-8v-7.563l2.281 2.282c.399.398 1.04.398 1.438 0a1.014 1.014 0 000-1.438l-3.406-3.406c4.57-.605 8.167-4.262 8.624-8.875h7.625l-2.28 2.281a1.014 1.014 0 000 1.438c.398.398 1.038.398 1.437 0l3.781-3.781 8.5 8.5v8.125l-2.281-2.282A1.007 1.007 0 0035.78 25a.994.994 0 00-.781.703c-.105.367.004.758.281 1.016l3.407 3.406C33.793 30.77 30 34.934 30 40c0 5.512 4.488 10 10 10s10-4.488 10-10c0-5.066-3.793-9.23-8.688-9.875l3.407-3.406a1.014 1.014 0 000-1.438 1.014 1.014 0 00-1.438 0L41 27.563v-8.125l8.719-8.72a.999.999 0 000-1.437l-9-9A1.009 1.009 0 0039.875 0a1.008 1.008 0 00-.594.281L30.5 9.062l-3.781-3.78a1.004 1.004 0 00-.813-.313c-.043.008-.086.02-.125.031a.994.994 0 00-.781.703c-.105.367.004.758.281 1.016L27.563 9h-7.625c-.5-5.047-4.762-9-9.938-9zm0 2c4.293 0 7.754 3.355 7.969 7.594-.094.254-.086.535.031.781v.031A7.998 7.998 0 0110 18c-4.43 0-8-3.57-8-8s3.57-8 8-8zm30 .438L47.563 10 40 17.563 32.437 10zM2 32h16v16H2zm38 0c4.43 0 8 3.57 8 8s-3.57 8-8 8-8-3.57-8-8 3.57-8 8-8z"/>
</svg>
