<svg xmlns="http://www.w3.org/2000/svg" viewBox="0 0 50 50">
  <path d="M7 7c-1.654 0-3 1.346-3 3v30c0 1.654 1.346 3 3 3h20.266a5.506 5.506 0 012.673-1.777l.051-.016.051-.012.266-.062.517-.133H7c-.552 0-1-.449-1-1V15h38v9.445l2-.41V10c0-1.654-1.346-3-3-3H7zm0 2h36c.552 0 1 .449 1 1v3H6v-3c0-.551.448-1 1-1zm1 1a1 1 0 00-1 1 1 1 0 001 1 1 1 0 001-1 1 1 0 00-1-1zm3 0a1 1 0 00-1 1 1 1 0 001 1 1 1 0 001-1 1 1 0 00-1-1zm3 0a1 1 0 00-1 1 1 1 0 001 1 1 1 0 001-1 1 1 0 00-1-1zm35.053 15.486a1.01 1.01 0 00-.227.014l-12.695 2.594A1.368 1.368 0 0035 29.44v11.782a1 1 0 01-.754.968l-3.445.88-.291.07a3.513 3.513 0 00-2.47 3.882C28.311 48.786 29.98 50 31.765 50h.1C34.7 50 37 47.7 37 44.865V33.631l11-2.258v6.852a1 1 0 01-.754.968l-3.445.877-.291.07a3.513 3.513 0 00-2.47 3.883C41.311 45.786 42.98 47 44.765 47h.1C47.7 47 50 44.7 50 41.865v-15.38a1 1 0 00-.947-.999z"/>
</svg>
