<svg xmlns="http://www.w3.org/2000/svg" viewBox="0 0 50 50">
  <path d="M4.846 6C3.276 6 2 7.298 2 8.893V43a1 1 0 001 1h22.365a13.97 13.97 0 01-.777-2H4V20h42v6.52a14.07 14.07 0 012 1.69V8.894C48 7.298 46.723 6 45.154 6H4.846zm0 2h40.308c.467 0 .846.4.846.893V18H4V8.893C4 8.4 4.379 8 4.846 8zM19 10v6h24v-6H19zM8 11a2 2 0 00-2 2 2 2 0 002 2 2 2 0 002-2 2 2 0 00-2-2zm6 0a2 2 0 00-2 2 2 2 0 002 2 2 2 0 002-2 2 2 0 00-2-2zm7 1h20v2H21v-2zm17 14c-6.616 0-12 5.384-12 12s5.384 12 12 12 12-5.384 12-12-5.384-12-12-12zm0 2c.18 0 .438.096.799.516.361.42.756 1.13 1.09 2.048.157.433.3.919.43 1.436h-4.637c.13-.517.272-1.003.43-1.436.333-.918.728-1.628 1.09-2.048.36-.42.617-.516.798-.516zm-3.176.521c-.216.417-.413.868-.592 1.36A17.833 17.833 0 0033.635 32h-3.633a10.004 10.004 0 014.822-3.479zm6.352 0A10.004 10.004 0 0145.998 32h-3.633a17.833 17.833 0 00-.597-2.12 11.392 11.392 0 00-.592-1.359zM28.834 34h4.441a29.03 29.03 0 00-.24 3h-4.98a9.93 9.93 0 01.779-3zm6.455 0h5.422c.138.932.215 1.948.252 3h-5.926a27.15 27.15 0 01.252-3zm7.436 0h4.441a9.93 9.93 0 01.78 3h-4.981a29.03 29.03 0 00-.24-3zm-14.67 5h4.98c.033 1.044.11 2.05.24 3h-4.441a9.93 9.93 0 01-.78-3zm6.982 0h5.926a27.15 27.15 0 01-.252 3h-5.422a27.15 27.15 0 01-.252-3zm7.928 0h4.98a9.93 9.93 0 01-.779 3h-4.441c.13-.95.207-1.956.24-3zm-12.963 5h3.633c.171.756.364 1.477.597 2.12.18.49.376.942.592 1.359A10.004 10.004 0 0130.002 44zm5.68 0h4.636c-.13.517-.272 1.003-.43 1.436-.333.918-.728 1.628-1.09 2.048-.36.42-.617.516-.798.516-.18 0-.438-.096-.799-.516-.361-.42-.756-1.13-1.09-2.048-.157-.433-.3-.919-.43-1.436zm6.683 0h3.633a10.004 10.004 0 01-4.822 3.479c.216-.417.413-.868.592-1.36.233-.642.426-1.363.597-2.119z"/>
</svg>
