<svg xmlns="http://www.w3.org/2000/svg" viewBox="0 0 50 50">
  <path d="M14 11C6.28 11 0 17.28 0 25s6.28 14 14 14h22c7.378 0 13.375-5.753 13.898-13H50v-1c0-7.72-6.28-14-14-14H14zm0 2h3.826c-.707.425-1.375.907-1.994 1.445A1 1 0 0015 14a1 1 0 00-1 1 1 1 0 00.445.832 14.201 14.201 0 00-1.459 2.01A1 1 0 0012 17a1 1 0 00-1 1 1 1 0 001 1 1 1 0 00.404-.086 13.831 13.831 0 00-1.334 4.719A1 1 0 0011 24a1 1 0 00.035.256c-.013.247-.035.493-.035.744 0 1.419.217 2.787.611 4.078A1 1 0 0011 30a1 1 0 001 1 1 1 0 00.326-.057 14.099 14.099 0 004.906 5.696 1 1 0 00.555.338l.04.023H14c-.526 0-1.04-.046-1.547-.111A1 1 0 0013 36a1 1 0 00-1-1 1 1 0 00-1 1 1 1 0 00.264.676 11.974 11.974 0 01-8.94-8.94A1 1 0 003 28a1 1 0 001-1 1 1 0 00-1-1 1 1 0 00-.889.545A12.102 12.102 0 012 25c0-1.101.161-2.162.438-3.174A1 1 0 003 22a1 1 0 001-1 1 1 0 00-.904-.996 12.004 12.004 0 015.013-5.457A1 1 0 008 15a1 1 0 001 1 1 1 0 001-1 1 1 0 00-.828-.986A11.977 11.977 0 0114 13zm11 0c6.64 0 12 5.36 12 12s-5.36 12-12 12-12-5.36-12-12 5.36-12 12-12zm7.174 0H36c6.64 0 12 5.36 12 12s-5.36 12-12 12h-3.826C36.254 34.551 39 30.096 39 25s-2.746-9.551-6.826-12zM6 17a1 1 0 00-1 1 1 1 0 001 1 1 1 0 001-1 1 1 0 00-1-1zm3 3a1 1 0 00-1 1 1 1 0 001 1 1 1 0 001-1 1 1 0 00-1-1zm-3 3a1 1 0 00-1 1 1 1 0 001 1 1 1 0 001-1 1 1 0 00-1-1zm3 3a1 1 0 00-1 1 1 1 0 001 1 1 1 0 001-1 1 1 0 00-1-1zm-3 3a1 1 0 00-1 1 1 1 0 001 1 1 1 0 001-1 1 1 0 00-1-1zm3 3a1 1 0 00-1 1 1 1 0 001 1 1 1 0 001-1 1 1 0 00-1-1z"/>
</svg>
