<svg xmlns="http://www.w3.org/2000/svg" viewBox="0 0 50 50">
  <path d="M7 7c-1.654 0-3 1.346-3 3v30c0 1.654 1.346 3 3 3h15.307a6.951 6.951 0 01.966-2H7c-.551 0-1-.449-1-1V15h38v16.943c.729.363 1.4.824 2 1.362V10c0-1.654-1.346-3-3-3H7zm0 2h36c.551 0 1 .449 1 1v3H6v-3c0-.551.449-1 1-1zm1 1a1 1 0 00-1 1 1 1 0 001 1 1 1 0 001-1 1 1 0 00-1-1zm3 0a1 1 0 00-1 1 1 1 0 001 1 1 1 0 001-1 1 1 0 00-1-1zm3 0a1 1 0 00-1 1 1 1 0 001 1 1 1 0 001-1 1 1 0 00-1-1zm26 23c-2.886 0-5.289 1.802-6.355 4.309-.383-.111-.722-.309-1.145-.309-1.99 0-3.614 1.341-4.2 3.143-2.406.355-4.3 2.355-4.3 4.857 0 2.75 2.25 5 5 5h16c2.75 0 5-2.25 5-5 0-2.046-1.275-3.748-3.047-4.518.012-.162.047-.315.047-.482 0-3.854-3.146-7-7-7zm0 2a4.984 4.984 0 014.91 5.922l-.18.945.94.215A2.988 2.988 0 0148 45c0 1.668-1.332 3-3 3H29c-1.668 0-3-1.332-3-3s1.332-3 3-3c-.18 0-.162.006.05.006h.868l.121-.86A2.48 2.48 0 0132.5 39c.435 0 .84.12 1.215.332l1.125.637.332-1.25A4.992 4.992 0 0140 35z"/>
</svg>
