<svg xmlns="http://www.w3.org/2000/svg" viewBox="0 0 50 50">
  <path d="M19.875 3.313c-4.691.105-7.66 2.003-8.938 4.937-1.214 2.793-.96 6.313-.093 9.969-.465.547-.848 1.316-.75 2.468v.063c.168 1.219.535 2.078 1 2.688.226.296.562.304.844.468.167 1.082.488 2.149.937 3.032.254.5.508.94.781 1.312.125.172.305.266.438.406.011 1.305.062 2.301-.094 3.625-.3.758-1.05 1.364-2.25 1.969-1.254.633-2.895 1.215-4.563 1.938-1.667.722-3.359 1.59-4.718 2.968-1.36 1.38-2.332 3.29-2.469 5.782L-.063 46h40.126L40 44.937c-.137-2.492-1.086-4.398-2.438-5.78-1.351-1.384-3.05-2.247-4.718-2.97-1.668-.722-3.32-1.3-4.594-1.937-1.234-.617-2.008-1.246-2.344-2.031a56.488 56.488 0 01-.093-3.594c.117-.133.292-.219.406-.375.265-.371.535-.816.781-1.313.434-.875.766-1.949.969-3 .32-.164.687-.175.937-.5.48-.628.762-1.523.875-2.75.09-1.058-.215-1.828-.687-2.406.52-1.601 1.136-4.164.937-6.781-.11-1.438-.488-2.871-1.343-4.063-.774-1.078-2.024-1.816-3.594-2.156-1.059-1.414-2.98-1.968-5.188-1.968zm.031 2h.032c1.996.007 3.273.57 3.687 1.28l.25.438.5.063c1.375.191 2.129.722 2.688 1.5.558.777.878 1.863.968 3.062.184 2.403-.511 5.219-.968 6.5L26.75 19l.781.406c-.008.028.32.36.282 1.094v.031c-.094.942-.336 1.473-.5 1.688-.168.218-.254.187-.22.187h-.874l-.094.844c-.129.902-.496 1.95-.906 2.781a7.817 7.817 0 01-.625 1.063c-.184.254-.364.39-.282.343l-.5.282v.593c0 1.5-.007 2.622.094 4.25v.157l.063.125c.586 1.531 1.914 2.492 3.375 3.218 1.46.727 3.117 1.29 4.687 1.97 1.57.679 3.035 1.448 4.094 2.53.844.864 1.352 2.012 1.625 3.438H2.25c.273-1.426.777-2.574 1.625-3.438C4.938 39.48 6.43 38.712 8 38.032c1.57-.68 3.21-1.239 4.656-1.97 1.446-.73 2.754-1.703 3.281-3.25l.063-.187c.21-1.695.094-2.855.094-4.313v-.593l-.5-.282c.074.043-.121-.117-.313-.375a7.125 7.125 0 01-.625-1.03c-.418-.825-.793-1.852-.875-2.72l-.062-.906h-.844a.58.58 0 01-.219-.187c-.176-.23-.426-.77-.562-1.688V20.5c-.004-.016.004-.016 0-.031-.016-.758.453-1.18.375-1.125l.562-.407-.156-.687c-.922-3.645-1.066-6.945-.094-9.188.973-2.234 2.942-3.648 7.125-3.75zM33 16v2h17v-2zm-2 8v2h19v-2zm2 8v2h17v-2z"/>
</svg>
