<svg xmlns="http://www.w3.org/2000/svg" viewBox="0 0 50 50">
  <path d="M24.844 2.031c-.438 0-.875.004-1.313.031a22.947 22.947 0 00-12.593 4.75A22.974 22.974 0 002 25c0 .672-.008 1.375.094 2.125l.125.875h5.969l-.094-1.094A17.256 17.256 0 018 25c.023-9.402 7.629-16.96 17.031-16.938 5.137.012 9.95 2.372 13.157 6.344l-2.907 2.875L33.594 19H47V5.594L45.281 7.28l-2.843 2.875c-4.543-5.328-11.024-8.152-17.594-8.125zm.062 2c6.309-.02 12.563 2.77 16.719 8.157l.688.906.812-.813L45 10.437V17h-6.563l1.813-1.844.625-.594-.531-.687a18.954 18.954 0 00-15.282-7.813C14.582 6.035 6.027 14.52 6 25c-.004.336.016.664.031 1H4.063C4.05 25.668 4 25.36 4 25a21.041 21.041 0 018.188-16.625 20.81 20.81 0 0111.468-4.313 19.07 19.07 0 011.25-.03zM41.781 22l.125 1.125c1.047 9.344-5.656 17.734-15 18.781-.633.07-1.27.094-1.906.094-5.164 0-9.984-2.398-13.188-6.406l2.907-2.875L16.406 31H3v13.406l1.719-1.687 2.843-2.875c7.899 9.265 21.754 10.86 31.5 3.343A22.974 22.974 0 0048 25c0-.672.008-1.375-.094-2.125L47.781 22zm2.125 2h2.032c.011.332.062.64.062 1a21.04 21.04 0 01-8.188 16.625c-9.19 7.09-22.347 5.379-29.437-3.813l-.688-.906-.812.813L5 39.562V33h6.563L9.75 34.844l-.594.593.469.688A18.973 18.973 0 0025 44c.71 0 1.418-.047 2.125-.125C37.16 42.754 44.425 33.957 43.906 24z"/>
</svg>
