<svg xmlns="http://www.w3.org/2000/svg" viewBox="0 0 50 50">
  <path d="M24.906 2.969c-.043.008-.086.02-.125.031A1.002 1.002 0 0024 4v28.563l-6.281-6.282a.994.994 0 00-.532-.281 1.016 1.016 0 00-.406 0 .994.994 0 00-.781.703c-.105.367.004.758.281 1.016l7.875 7.843a.965.965 0 00.282.282l.562.562.563-.562c.03-.02.062-.04.093-.063l.063-.062v-.032a.472.472 0 00.062-.062l7.938-7.906a1.014 1.014 0 000-1.438 1.014 1.014 0 00-1.438 0L26 32.563V4v-.094-.094a1.075 1.075 0 00-.063-.218.472.472 0 00-.062-.063.842.842 0 00-.094-.187.472.472 0 00-.156-.125.997.997 0 00-.719-.25zM2 36v6c0 2.746 2.254 5 5 5h36c2.746 0 5-2.254 5-5v-6h-2v6a3 3 0 01-3 3H7a3 3 0 01-3-3v-6z"/>
</svg>
