<svg xmlns="http://www.w3.org/2000/svg" viewBox="0 0 50 50">
  <path d="M6 5c-.013 0-.023.008-.035.008-.017 0-.034-.001-.05.002-.037.002-.067.021-.1.027-.084.016-.167.029-.24.063-.054.025-.097.061-.145.095-.057.04-.113.074-.16.125-.033.034-.055.077-.082.116a.928.928 0 00-.12.207c-.017.046-.019.094-.029.142-.013.062-.039.12-.039.184v4.062c0 .532.45.969 1 .969s1-.437 1-.969V7h4.031c.533 0 .969-.45.969-1s-.436-1-.969-1H6.088c-.023 0-.045.003-.068.004C6.013 5.004 6.007 5 6 5zm8.969 0C14.437 5 14 5.45 14 6s.437 1 .969 1h2.062c.532 0 .969-.45.969-1s-.437-1-.969-1H14.97zm6 0C20.437 5 20 5.45 20 6s.437 1 .969 1h2.062c.532 0 .969-.45.969-1s-.437-1-.969-1H20.97zm6 0C26.437 5 26 5.45 26 6s.437 1 .969 1h2.062c.532 0 .969-.45.969-1s-.437-1-.969-1H26.97zm6 0C32.436 5 32 5.45 32 6s.436 1 .969 1H37v3.031c0 .532.45.969 1 .969s1-.437 1-.969V5.97c0-.064-.026-.12-.04-.182-.01-.048-.011-.098-.028-.144-.028-.076-.074-.14-.12-.205-.026-.04-.05-.083-.082-.118-.047-.05-.105-.085-.162-.125-.048-.034-.09-.071-.144-.095-.074-.034-.156-.047-.238-.063-.034-.006-.064-.025-.1-.027-.017-.003-.034-.001-.05-.002-.013 0-.023-.008-.036-.008-.007 0-.013.004-.02.004-.023-.001-.045-.004-.068-.004H32.97zM6 13c-.55 0-1 .437-1 .969v2.062c0 .532.45.969 1 .969s1-.437 1-.969V13.97C7 13.437 6.55 13 6 13zm32 0c-.55 0-1 .437-1 .969v2.062c0 .532.45.969 1 .969s1-.437 1-.969V13.97c0-.532-.45-.969-1-.969zM6 19c-.55 0-1 .437-1 .969v2.062c0 .532.45.969 1 .969s1-.437 1-.969V19.97C7 19.437 6.55 19 6 19zm12 0c-2.197 0-4 1.803-4 4v19c0 2.197 1.803 4 4 4h24c2.197 0 4-1.803 4-4V23c0-2.197-1.803-4-4-4H18zm0 2h24c1.117 0 2 .883 2 2v19c0 1.117-.883 2-2 2H18c-1.117 0-2-.883-2-2V23c0-1.117.883-2 2-2zM6 25c-.55 0-1 .437-1 .969v2.062c0 .532.45.969 1 .969s1-.437 1-.969V25.97C7 25.437 6.55 25 6 25zm22 2v10l2.42-2.059L31.94 38.5l1.282-.568-1.61-3.506L35 34l-7-7zM6 31c-.55 0-1 .436-1 .969v3.943c0 .023.003.045.004.068 0 .007-.004.013-.004.02 0 .013.008.023.008.035 0 .017-.001.034.002.05.002.037.021.067.027.1.016.083.029.165.063.239.024.054.061.096.095.144.04.057.074.115.125.162.035.032.079.056.117.083.066.045.13.09.206.119.046.017.096.019.144.029.061.013.118.039.182.039h5.062c.532 0 .969-.45.969-1s-.437-1-.969-1H7v-3.031C7 31.436 6.55 31 6 31z"/>
</svg>
