<svg xmlns="http://www.w3.org/2000/svg" viewBox="0 0 50 50">
  <path d="M21 2c-4.406 0-8 3.594-8 8 0 2.948 1.616 5.514 4 6.898v15.444l-5.17-5.172a4.017 4.017 0 00-5.658 0 4.017 4.017 0 000 5.658l11.363 11.363a13 13 0 009.19 3.807L34 48c4.958 0 9-4.04 9-8.998V26c0-2.197-1.803-4-4-4-.828 0-1.6.256-2.24.693C36.212 21.134 34.738 20 33 20c-1.002 0-1.897.409-2.602 1.025C29.702 19.84 28.466 19 27 19c-.743 0-1.402.262-2 .62v-2.722A7.98 7.98 0 0028.926 11h14.676l-3.311 3.344a1 1 0 101.42 1.408l4.914-4.961a1 1 0 00.186-.187l.597-.604-.601-.607a1 1 0 00-.184-.186l-4.805-4.852a1 1 0 00-.714-.306 1 1 0 00-.708 1.713L43.602 9h-14.67C28.436 5.063 25.067 2 21 2zm0 2a5.981 5.981 0 015.994 5.883 1 1 0 00-.002.228 1 1 0 000 .004A5.952 5.952 0 0125 14.46V10c0-2.197-1.803-4-4-4s-4 1.803-4 4v4.46A5.956 5.956 0 0115 10c0-3.326 2.674-6 6-6zm0 4c1.117 0 2 .883 2 2v15a1 1 0 00.115.48 1 1 0 00.051.086 1 1 0 00.06.082 1 1 0 00.067.073 1 1 0 00.074.068 1 1 0 00.166.11 1 1 0 00.283.099 1 1 0 00.2.016 1 1 0 00.1-.006 1 1 0 00.286-.078 1 1 0 00.09-.045 1 1 0 00.084-.055 1 1 0 00.08-.06 1 1 0 00.073-.07 1 1 0 00.064-.077 1 1 0 00.057-.082 1 1 0 00.048-.086 1 1 0 00.09-.285 1 1 0 00.01-.1A1 1 0 0025 25v-2c0-1.117.883-2 2-2s2 .883 2 2v2a1 1 0 00.004.1 1 1 0 00.014.1 1 1 0 00.209.448 1 1 0 00.306.25 1 1 0 00.186.077 1 1 0 00.097.023 1 1 0 00.1.012 1 1 0 00.2-.002 1 1 0 00.376-.123 1 1 0 00.084-.055 1 1 0 00.08-.06 1 1 0 00.073-.07 1 1 0 00.12-.159 1 1 0 00.088-.178 1 1 0 00.051-.193 1 1 0 00.01-.1A1 1 0 0031 25v-1c0-1.117.883-2 2-2s2 .883 2 2v3a1 1 0 102 0v-1c0-1.117.883-2 2-2s2 .883 2 2v13.002A6.984 6.984 0 0134 46l-7.275-.002a10.997 10.997 0 01-7.776-3.22L7.586 31.413a1.983 1.983 0 010-2.828c.79-.79 2.038-.79 2.828 0l6.797 6.797A1 1 0 0019 34.756V10c0-1.117.883-2 2-2z"/>
</svg>
