<svg xmlns="http://www.w3.org/2000/svg" viewBox="0 0 50 50">
  <path d="M38.5-.094c-.297.008-.605.028-.906.063-1.2.136-2.438.465-3.625.906C31.594 1.758 29.406 3.094 28 4.5c-1.52 1.52-2.266 3.375-2.25 5.281.012 1.649.629 3.313 1.531 4.906L25 17a1.004 1.004 0 00-.348 1.004c.086.371.38.664.75.75.375.086.762-.05 1.004-.348l2.813-2.812a.999.999 0 00.125-1.25c-1.024-1.582-1.582-3.145-1.594-4.563-.012-1.418.477-2.695 1.656-3.875 1.094-1.093 3.157-2.363 5.282-3.156a11.749 11.749 0 013.78-.719l-3.78 3.75a.466.466 0 00-.032.063c-1.027 1.172-1.074 2.957.032 4.062L40 15.22l.031.031c1.172 1.027 2.957 1.074 4.063-.031l3.781-3.781a11.623 11.623 0 01-.719 3.812c-.789 2.113-2.058 4.152-3.156 5.25-1.18 1.18-2.434 1.613-3.844 1.594-1.41-.02-3.008-.574-4.656-1.563a1 1 0 00-1.219.157l-1.593 1.593a1.006 1.006 0 001.406 1.438l1.125-1.125c1.625.87 3.258 1.476 4.906 1.5 1.89.027 3.762-.668 5.281-2.188 1.403-1.402 2.742-3.574 3.625-5.937.883-2.364 1.348-4.926.625-7.094a1.001 1.001 0 00-.722-.648A1.005 1.005 0 0048 8.5l-5.313 5.281c-.28.281-.859.32-1.28 0-.02-.015-.044-.015-.063-.031l-5.25-5.25c-.297-.297-.313-.918.062-1.344l5.25-5.25c.246-.242.348-.593.274-.933A1.001 1.001 0 0041.03.25c-.8-.273-1.644-.371-2.531-.344zM3.344 0c-.211.031-.41.129-.563.281l-2.5 2.5A1 1 0 00.125 4l4.219 7.313a1 1 0 001 .468l2.187-.344L21.094 25l-.5.5a2.827 2.827 0 000 4l.687.719c.797.797 1.895.793 2.875.468l1.688 1.657c-.114 1.347.281 2.687 1.25 3.656L39.28 48.219a6.318 6.318 0 008.938 0v-.032c2.37-2.492 2.402-6.503 0-8.906L36 27.094c-1.008-1.008-2.348-1.32-3.656-1.25l-1.657-1.688c.325-.98.329-2.078-.468-2.875l-.719-.687a2.835 2.835 0 00-2-.844c-.727 0-1.45.293-2 .844l-.5.5L11.437 7.53l.344-2.187a1 1 0 00-.469-1L4 .125A.979.979 0 003.437 0h-.093zm.344 2.25l6.03 3.469-.312 2.031c-.043.309.063.621.281.844L23.595 22.5 22.5 23.594 8.594 9.687a1.009 1.009 0 00-.844-.28l-2.031.312L2.25 3.688zM27.5 21.781c.223 0 .445.07.594.219l.687.719a.83.83 0 01.063 1.125 1 1 0 00.062 1.375l2.282 2.281c.23.23.554.336.875.281.925-.152 1.894.082 2.53.719l12.188 12.219c1.594 1.593 1.61 4.351 0 6.062-1.73 1.73-4.332 1.73-6.062 0L28.5 34.594c-.664-.664-.926-1.606-.719-2.438a.996.996 0 00-.281-.968l-2.281-2.282a1 1 0 00-1.375-.062.83.83 0 01-1.125-.063L22 28.094c-.297-.297-.297-.89 0-1.188L26.906 22c.149-.148.371-.219.594-.219zm-9.813 3a1.005 1.005 0 00-.593.313l-4.75 4.75c-.68-.133-1.348-.25-2.031-.25-5.637 0-10.22 4.582-10.22 10.218C.094 45.45 4.677 50 10.314 50 15.948 50 20.5 45.45 20.5 39.812c0-.73-.164-1.453-.344-2.156l3.438-3.437a1.006 1.006 0 00-1.407-1.438l-3.78 3.813a1.006 1.006 0 00-.25 1.062c.25.664.343 1.332.343 2.157A8.136 8.136 0 0110.312 48c-4.562 0-8.218-3.625-8.218-8.188a8.189 8.189 0 018.219-8.218c.714 0 1.433.101 2.156.281.34.074.695-.031.937-.281L18.5 26.5a1.002 1.002 0 00-.719-1.719h-.093zm14.032 5.5L30.28 31.72l12 12 1.438-1.438zM11.375 34a1.006 1.006 0 00-.156.031L6.53 35.344a.998.998 0 00-.687.687L4.53 40.72a.997.997 0 00.25 1l3.5 3.5c.254.25.625.347.969.25l4.813-1.313a1 1 0 00.718-.718l1.188-4.688a.997.997 0 00-.25-.969l-3.5-3.5a1.009 1.009 0 00-.844-.281zm-.188 2.125l2.688 2.688-.906 3.593-3.656.969-2.688-2.688.969-3.593z"/>
</svg>
