<svg xmlns="http://www.w3.org/2000/svg" viewBox="0 0 50 50">
  <path d="M10 4c-3.302 0-6 2.698-6 6v5a1 1 0 102 0v-5c0-2.22 1.78-4 4-4h5a1 1 0 100-2h-5zm25 0a1 1 0 100 2h5c2.22 0 4 1.78 4 4v5a1 1 0 102 0v-5c0-3.302-2.698-6-6-6h-5zM15.984 17.986A1 1 0 0015 19v3a1 1 0 102 0v-3a1 1 0 00-1.016-1.014zm10 0A1 1 0 0025 19v8c0 .565-.435 1-1 1h-1a1 1 0 100 2h1c1.645 0 3-1.355 3-3v-8a1 1 0 00-1.016-1.014zm8 0A1 1 0 0033 19v3a1 1 0 102 0v-3a1 1 0 00-1.016-1.014zm-29 15A1 1 0 004 34v6c0 3.302 2.698 6 6 6h5a1 1 0 100-2h-5c-2.22 0-4-1.78-4-4v-6a1 1 0 00-1.016-1.014zm26.006 0a1 1 0 00-.697.307s-.36.372-1.24.812c-.881.44-2.22.895-4.053.895-1.833 0-3.172-.454-4.053-.895-.88-.44-1.24-.812-1.24-.812a1 1 0 00-.717-.303 1 1 0 00-.697 1.717s.64.628 1.76 1.188C21.172 36.455 22.833 37 25 37c2.167 0 3.828-.546 4.947-1.105 1.12-.56 1.76-1.188 1.76-1.188a1 1 0 00-.717-1.72zm13.994 0A1 1 0 0044 34v6c0 2.22-1.78 4-4 4h-5a1 1 0 100 2h5c3.302 0 6-2.698 6-6v-6a1 1 0 00-1.016-1.014z"/>
</svg>
