<svg xmlns="http://www.w3.org/2000/svg" viewBox="0 0 32 32">
  <path d="M8 5v11.488a30.789 30.789 0 00-3.979 1.272l.737 1.86S9.062 18 11.453 18c.967 0 2.62.585 3.967 1.273.674.345 1.283.709 1.728 1.004.223.148.406.28.526.375.028.023.039.038.06.059.033.03.066.06.092.094l.067.101a.73.73 0 01-.05.774.743.743 0 01-.855.275l-4.351-2.07-.86 1.804 4.493 2.137.048.018c.92.322 1.855.01 2.584-.588h.28l.297-.422.001-.004a2.722 2.722 0 00.465-1.883l4.774-.779h.002a1.07 1.07 0 011.2.723c.18.54-.065 1.1-.583 1.328-1.465.645-3.85 1.61-5.967 2.406a71.38 71.38 0 01-2.826 1.006c-.387.126-.72.225-.967.289-.246.064-.453.08-.351.08.062 0-.354-.096-.825-.35-.47-.254-1.047-.618-1.638-.994-.591-.375-1.197-.76-1.78-1.07-.582-.31-1.099-.586-1.806-.586-1.636 0-3.096.633-3.096.633l.762 1.85S8.088 25 9.178 25c-.026 0 .392.098.869.352.477.253 1.055.617 1.644.992.59.374 1.189.76 1.76 1.068.572.309 1.066.588 1.776.588.34 0 .549-.064.857-.145.308-.08.67-.19 1.08-.324.821-.267 1.834-.63 2.91-1.035 2.153-.809 4.547-1.776 6.07-2.447 1.018-.449 1.482-1.429 1.612-2.475h.502l-.438-1.314a3.09 3.09 0 00-3.424-2.065h-.003L24 18.26V5H8zm2 2h12v11.586l-3.078.502c-.017-.014-.043-.03-.06-.043-.022-.016-.038-.036-.06-.05l-.292-.208-.002.004c-.087-.061-.154-.115-.252-.18a20.027 20.027 0 00-1.926-1.119C14.844 16.732 13.094 16 11.453 16c-.468 0-.957.045-1.453.11V7zm4 2v2h4V9h-4z"/>
</svg>
