<svg xmlns="http://www.w3.org/2000/svg" viewBox="0 0 50 50">
  <path d="M21 2c-1.645 0-3 1.355-3 3v2h-7.844c-.058-.008-.113-.016-.172-.016-.046.004-.097.008-.144.016H8a1.006 1.006 0 00-.879.496 1.01 1.01 0 000 1.008c.184.312.52.5.879.496h1v36c0 1.645 1.355 3 3 3h26c1.645 0 3-1.355 3-3V9h1c.36.004.695-.184.879-.496a1.01 1.01 0 000-1.008c-.184-.312-.52-.5-.879-.496h-1.832a.904.904 0 00-.324 0H32V5c0-1.645-1.355-3-3-3zm0 2h8c.555 0 1 .445 1 1v2H20V5c0-.555.445-1 1-1zM11 9h7.832c.11.02.219.02.324 0h11.676c.11.02.219.02.324 0H39v36c0 .555-.445 1-1 1H12c-.555 0-1-.445-1-1zm6.988 10.988a1 1 0 00-.695 1.719L23.586 28l-6.293 6.293a.992.992 0 00-.273.973.99.99 0 00.714.714.992.992 0 00.973-.273L25 29.414l6.293 6.293c.25.262.625.367.973.273a.99.99 0 00.714-.714.992.992 0 00-.273-.973L26.414 28l6.293-6.293a.997.997 0 00.223-1.105.995.995 0 00-1.637-.309L25 26.586l-6.293-6.293a1.008 1.008 0 00-.719-.305z"/>
</svg>
