<svg xmlns="http://www.w3.org/2000/svg" viewBox="0 0 50 50">
  <path d="M11 3a1 1 0 00-1 1v14a1 1 0 001 1h4v14.55l-3.936-3.935c-1.264-1.264-3.342-1.522-4.785-.342-1.607 1.315-1.706 3.75-.263 5.192l10.521 10.49A7 7 0 0021.48 47H30c3.854 0 7-3.146 7-7v-9.357c0-1.788-1.287-3.44-3.143-3.625-.832-.084-1.58.192-2.224.615-.401-1.322-1.31-2.468-2.776-2.615-.957-.096-1.834.235-2.523.79-.542-.924-1.327-1.675-2.477-1.79-.677-.068-1.292.116-1.857.396V19h3a1 1 0 001-1V4a1 1 0 00-1-1H11zm19 0a1 1 0 00-1 1v14a1 1 0 001 1h14a1 1 0 001-1V4a1 1 0 00-1-1H30zM12 5h12v12h-2.057c-.265-1.524-1.456-2.818-3.086-2.982a3.435 3.435 0 00-.978.056l4.865-5.404-1.488-1.34-3.846 4.275-2.76-2.365-1.3 1.52 4.011 3.437A3.524 3.524 0 0015.055 17H12V5zm19 0h12v12H31V5zM18.32 16.008a1.63 1.63 0 01.338 0c.748.075 1.342.806 1.342 1.635v.189a1 1 0 000 .326V27.5a1 1 0 002 0c0-.893.73-1.585 1.658-1.492.748.075 1.342.806 1.342 1.635v.857a1 1 0 002 0c0-.893.73-1.585 1.658-1.492.748.075 1.342.806 1.342 1.635V30.5a1 1 0 002 0c0-.893.73-1.585 1.658-1.492.747.074 1.342.806 1.342 1.635V40c0 2.774-2.226 5-5 5h-8.52a4.994 4.994 0 01-3.529-1.459 1 1 0 00-.002-.002L7.428 33.05a1.48 1.48 0 01.119-2.227c.581-.475 1.518-.379 2.103.207l5.643 5.643A1 1 0 0017 35.965V17.5c0-.781.559-1.41 1.32-1.492z"/>
</svg>
