<svg xmlns="http://www.w3.org/2000/svg" viewBox="0 0 50 50">
  <path d="M11 4C9.355 4 8 5.355 8 7v5H6.906c-.55.027-.98.496-.953 1.047.027.55.496.98 1.047.953h4c.36.004.695-.184.879-.496a1.01 1.01 0 000-1.008c-.184-.312-.52-.5-.879-.496h-1V7c0-.555.445-1 1-1h28c.555 0 1 .445 1 1v36c0 .555-.445 1-1 1H11c-.555 0-1-.445-1-1v-4H8v4c0 1.645 1.355 3 3 3h28c1.645 0 3-1.355 3-3V7c0-1.645-1.355-3-3-3zM8 15v3H6.813c-.551.05-.958.543-.907 1.094.051.55.543.957 1.094.906h4c.36.004.695-.184.879-.496a1.01 1.01 0 000-1.008c-.184-.312-.52-.5-.879-.496h-1v-3zm18 1c-6.102 0-10 4.813-10 10.313 0 5.3 3.813 8.5 8.313 8.5 1.898 0 3.273-.2 4.875-1l-.5-1.5c-1.102.601-2.5.874-4 .874-4 0-6.875-2.687-6.875-7.187 0-5.3 3.574-8.594 7.875-8.594 4.199 0 6.5 2.801 6.5 6.5 0 3.102-1.481 4.79-2.782 4.688-.8 0-1.02-.793-.718-2.594l.812-5c-.7-.3-1.895-.594-3.094-.594-3.8 0-6.312 2.98-6.312 6.282 0 2.199 1.3 3.5 3 3.5 1.5 0 2.695-.688 3.593-2.188h.125c.102 1.5.989 2.188 2.188 2.188 2.8 0 5-2.375 5-6.375 0-4.5-3.3-7.813-8-7.813zM8 21v3H6.906c-.55.027-.98.496-.953 1.047.027.55.496.98 1.047.953h4c.36.004.695-.184.879-.496a1.01 1.01 0 000-1.008c-.184-.312-.52-.5-.879-.496h-1v-3zm18.094 1.188c.5 0 .894.117 1.093.218l-.5 2.688c-.199 1.601-1.488 3.218-2.687 3.218-1.102 0-1.594-.71-1.594-1.812 0-2.3 1.586-4.313 3.688-4.313zM8 27v3H6.906c-.55.027-.98.496-.953 1.047.027.55.496.98 1.047.953h4c.36.004.695-.184.879-.496a1.01 1.01 0 000-1.008c-.184-.312-.52-.5-.879-.496h-1v-3zm0 6v3H6.906c-.55.027-.98.496-.953 1.047.027.55.496.98 1.047.953h4c.36.004.695-.184.879-.496a1.01 1.01 0 000-1.008c-.184-.312-.52-.5-.879-.496h-1v-3z"/>
</svg>
