<svg xmlns="http://www.w3.org/2000/svg" viewBox="0 0 50 50">
  <path d="M7 7c-1.645 0-3 1.355-3 3v30c0 1.645 1.355 3 3 3h36c1.645 0 3-1.355 3-3V10c0-1.645-1.355-3-3-3zm0 2h36c.566 0 1 .434 1 1v3H6v-3c0-.566.434-1 1-1zm1 1c-.55 0-1 .45-1 1s.45 1 1 1 1-.45 1-1-.45-1-1-1zm3 0c-.55 0-1 .45-1 1s.45 1 1 1 1-.45 1-1-.45-1-1-1zm3 0c-.55 0-1 .45-1 1s.45 1 1 1 1-.45 1-1-.45-1-1-1zm-8 5h38v25c0 .566-.434 1-1 1H7c-.566 0-1-.434-1-1zm18.984 3.984c-.55.012-.992.465-.984 1.016v7h-7a1.006 1.006 0 00-.879.496 1.01 1.01 0 000 1.008c.184.312.52.5.879.496h7v7c-.004.36.184.695.496.879.313.18.695.18 1.008 0 .312-.184.5-.52.496-.879v-7h7c.36.004.695-.184.879-.496a1.01 1.01 0 000-1.008c-.184-.312-.52-.5-.879-.496h-7v-7a1.003 1.003 0 00-1.016-1.016z"/>
</svg>
