<svg xmlns="http://www.w3.org/2000/svg" viewBox="0 0 50 50">
  <path d="M4 9c-1.645 0-3 1.355-3 3v26c0 1.645 1.355 3 3 3h42c1.645 0 3-1.355 3-3V12c0-1.645-1.355-3-3-3zm0 2h42c.566 0 1 .434 1 1v26c0 .566-.434 1-1 1H4c-.566 0-1-.434-1-1V12c0-.566.434-1 1-1zm12.5 5.281l-4.469 3.188v2.437l4.25-3.062h.219v14.343h2.375V16.282zm18.313 0l-4.47 3.188v2.437l4.25-3.062h.22v14.343h2.374V16.282zm-9.376 4.875c-.914 0-1.625.711-1.625 1.625 0 .903.711 1.625 1.625 1.625.926 0 1.625-.722 1.625-1.625 0-.914-.699-1.625-1.625-1.625zm0 8.938c-.914 0-1.625.71-1.625 1.625 0 .902.711 1.625 1.625 1.625.926 0 1.625-.723 1.625-1.625 0-.914-.699-1.625-1.625-1.625z"/>
</svg>
