<svg xmlns="http://www.w3.org/2000/svg" viewBox="0 0 50 50">
  <path d="M23 0C15.773 0 10.445 2.496 7 6.406 3.555 10.316 2 15.56 2 21c0 4.406 1.375 8.516 3.688 11.875C7.78 35.922 9 39.508 9 43.188V50h2v-6.813c0-4.085-1.36-8.042-3.625-11.374l-.063-.094A18.837 18.837 0 014 21c0-5.059 1.445-9.816 4.5-13.281 2.578-2.926 6.32-4.992 11.5-5.563v15.438c-2.918 1.195-5 4.066-5 7.406 0 4.406 3.594 8 8 8a8.007 8.007 0 005.031-1.781l5.219 3.625c-.152.36-.25.746-.25 1.156 0 1.645 1.355 3 3 3s3-1.355 3-3-1.355-3-3-3c-.508 0-.984.148-1.406.375l-5.188-3.594A7.99 7.99 0 0031 25c0-3.34-2.082-6.21-5-7.406V2.156C31.125 2.66 34.672 4.45 37.125 7c2.91 3.027 4.34 7.207 4.875 11.719l.031.218.094.157 4.719 8.093h-.032c.25.45.126.883-.312 1.125v.032l-4.5 2.25v6c0 3.742-3.086 6.66-6.813 6.312h-.03l-3.094-.218L31 42.624V50h2v-5.25l2 .156h.031c4.86.434 8.969-3.465 8.969-8.312v-4.782l3.438-1.718h.03l.032-.032c1.363-.757 1.813-2.492 1.063-3.843v-.032l-4.626-8c-.593-4.683-2.128-9.183-5.374-12.562C35.245 2.175 30.198 0 23 0zm0 2c.348 0 .664.02 1 .031v15.031A7.723 7.723 0 0023 17c-.34 0-.668.02-1 .063V2.03c.328-.011.66-.031 1-.031zm0 17c3.324 0 6 2.676 6 6s-2.676 6-6 6-6-2.676-6-6 2.676-6 6-6zm0 2c-2.2 0-4 1.8-4 4s1.8 4 4 4 4-1.8 4-4-1.8-4-4-4zm0 2c1.117 0 2 .883 2 2s-.883 2-2 2-2-.883-2-2 .883-2 2-2zm13 12c.563 0 1 .438 1 1 0 .563-.438 1-1 1-.563 0-1-.438-1-1 0-.563.438-1 1-1z"/>
</svg>
