<svg xmlns="http://www.w3.org/2000/svg" viewBox="0 0 50 50">
  <path d="M6 0C2.7 0 0 2.7 0 6s2.7 6 6 6a5.934 5.934 0 003.469-1.125l7.781 7.813a9.922 9.922 0 00-.656 11.687l-6.563 5.188A5.986 5.986 0 006 34c-3.3 0-6 2.7-6 6s2.7 6 6 6 6-2.7 6-6a5.881 5.881 0 00-.75-2.875l6.594-5.188C19.664 33.813 22.187 35 25 35c1.328 0 2.59-.246 3.75-.719l2.625 4.969C29.941 40.348 29 42.063 29 44c0 3.3 2.7 6 6 6s6-2.7 6-6-2.7-6-6-6c-.652 0-1.285.117-1.875.313l-2.625-4.97a10.059 10.059 0 004.031-5.312L38 28.75c-.004.082 0 .168 0 .25 0 3.3 2.7 6 6 6s6-2.7 6-6-2.7-6-6-6a6.013 6.013 0 00-5.594 3.813l-3.468-.75c.035-.348.062-.708.062-1.063 0-3.934-2.309-7.34-5.625-8.969l1.531-4.125c.352.063.727.094 1.094.094 3.3 0 6-2.7 6-6s-2.7-6-6-6-6 2.7-6 6c0 2.215 1.234 4.148 3.031 5.188L27.5 15.343A9.8 9.8 0 0025 15c-2.395 0-4.59.84-6.313 2.25l-7.812-7.781A5.934 5.934 0 0012 6c0-3.3-2.7-6-6-6zm0 2c2.223 0 4 1.777 4 4s-1.777 4-4 4-4-1.777-4-4 1.777-4 4-4zm26 0c2.223 0 4 1.777 4 4s-1.777 4-4 4-4-1.777-4-4 1.777-4 4-4zm-7 15c4.434 0 8 3.574 8 8 0 4.434-3.566 8-8 8-4.43 0-8-3.566-8-8 0-2.152.844-4.094 2.219-5.531a1.16 1.16 0 00.218-.219A7.968 7.968 0 0125 17zm19 8c2.223 0 4 1.777 4 4s-1.777 4-4 4-4-1.777-4-4 1.777-4 4-4zM6 36c2.223 0 4 1.777 4 4s-1.777 4-4 4-4-1.777-4-4 1.777-4 4-4zm29 4c2.223 0 4 1.777 4 4s-1.777 4-4 4-4-1.777-4-4c0-1.516.828-2.82 2.063-3.5.03-.008.062-.02.093-.031.012-.008.02-.024.032-.032A4.03 4.03 0 0135 40z"/>
</svg>
