<svg xmlns="http://www.w3.org/2000/svg" viewBox="0 0 50 50">
  <path d="M25 3c-1.645 0-3 1.355-3 3v8c0 1.645 1.355 3 3 3s3-1.355 3-3V6c0-1.645-1.355-3-3-3zm0 2c.565 0 1 .435 1 1v1h-2V6c0-.565.435-1 1-1zM11.564 8.572c-.77 0-1.54.29-2.12.871a3.015 3.015 0 000 4.243l5.658 5.658a3.015 3.015 0 004.242 0 3.015 3.015 0 000-4.242l-5.658-5.659a2.99 2.99 0 00-2.122-.87zm26.872 0c-.77 0-1.54.29-2.122.871l-5.658 5.659a3.015 3.015 0 000 4.242 3.015 3.015 0 004.242 0l5.659-5.658a3.015 3.015 0 000-4.243 2.99 2.99 0 00-2.121-.87zM24 9h2v2h-2V9zm-12.436 1.559c.254 0 .508.099.707.298l.708.707-1.415 1.415-.707-.708a.985.985 0 010-1.414c.2-.199.454-.298.707-.298zm26.872 0c.253 0 .507.099.707.298a.985.985 0 010 1.414l-5.659 5.659a.985.985 0 01-1.414 0 .985.985 0 010-1.414l5.659-5.659c.199-.199.453-.298.707-.298zm-24.043 2.42l1.416 1.416-1.414 1.414-1.416-1.416 1.414-1.414zM24 13h2v1c0 .565-.435 1-1 1s-1-.435-1-1v-1zm-6.777 2.809l.707.707a.985.985 0 010 1.414.985.985 0 01-1.414 0l-.707-.707 1.414-1.414zM6 22c-1.645 0-3 1.355-3 3s1.355 3 3 3h8c1.645 0 3-1.355 3-3s-1.355-3-3-3H6zm30 0c-1.645 0-3 1.355-3 3s1.355 3 3 3h8c1.645 0 3-1.355 3-3s-1.355-3-3-3h-8zM6 24h1v2H6c-.565 0-1-.435-1-1s.435-1 1-1zm3 0h2v2H9v-2zm4 0h1c.565 0 1 .435 1 1s-.435 1-1 1h-1v-2zm23 0h8c.565 0 1 .435 1 1s-.435 1-1 1h-8c-.565 0-1-.435-1-1s.435-1 1-1zm-18.777 5.785c-.77 0-1.54.29-2.121.871l-5.659 5.658a3.015 3.015 0 000 4.243 3.015 3.015 0 004.243 0l5.658-5.659a3.015 3.015 0 000-4.242 2.99 2.99 0 00-2.121-.87zm15.554 0c-.77 0-1.54.29-2.12.871a3.015 3.015 0 000 4.242l5.657 5.659a3.015 3.015 0 004.243 0 3.015 3.015 0 000-4.243l-5.659-5.658a2.99 2.99 0 00-2.12-.87zm-15.554 1.986c.253 0 .507.1.707.3a.985.985 0 010 1.413l-.707.707-1.414-1.414.707-.707c.2-.2.453-.299.707-.299zm15.554 0c.254 0 .508.1.707.3l5.659 5.658a.985.985 0 010 1.414.985.985 0 01-1.414 0l-5.659-5.659a.985.985 0 010-1.414c.2-.2.454-.299.707-.299zM25 33c-1.645 0-3 1.355-3 3v8c0 1.645 1.355 3 3 3s3-1.355 3-3v-8c0-1.645-1.355-3-3-3zm-10.605 1.191l1.414 1.414-1.416 1.416-1.414-1.414 1.416-1.416zM25 35c.565 0 1 .435 1 1v1h-2v-1c0-.565.435-1 1-1zm-13.436 2.021l1.415 1.415-.708.707a.985.985 0 01-1.414 0 .985.985 0 010-1.414l.707-.708zM24 39h2v2h-2v-2zm0 4h2v1c0 .565-.435 1-1 1s-1-.435-1-1v-1z"/>
</svg>
