<svg xmlns="http://www.w3.org/2000/svg" viewBox="0 0 50 50">
  <path d="M21 7c-1.645 0-3 1.355-3 3v5c0 1.645 1.355 3 3 3h3v4H11c-2.746 0-5 2.254-5 5v5H3c-1.645 0-3 1.355-3 3v5c0 1.645 1.355 3 3 3h8c1.645 0 3-1.355 3-3v-5c0-1.645-1.355-3-3-3H8v-5a3 3 0 013-3h13v8h-3c-1.645 0-3 1.355-3 3v5c0 1.645 1.355 3 3 3h8c1.645 0 3-1.355 3-3v-5c0-1.645-1.355-3-3-3h-3v-8h13a3 3 0 013 3v5h-3c-1.645 0-3 1.355-3 3v5c0 1.645 1.355 3 3 3h8c1.645 0 3-1.355 3-3v-5c0-1.645-1.355-3-3-3h-3v-5c0-2.746-2.254-5-5-5H26v-4h3c1.645 0 3-1.355 3-3v-5c0-1.645-1.355-3-3-3zm0 2h8c.555 0 1 .445 1 1v5c0 .555-.445 1-1 1h-8c-.555 0-1-.445-1-1v-5c0-.555.445-1 1-1zM3 34h8c.555 0 1 .445 1 1v5c0 .555-.445 1-1 1H3c-.555 0-1-.445-1-1v-5c0-.555.445-1 1-1zm18 0h8c.555 0 1 .445 1 1v5c0 .555-.445 1-1 1h-8c-.555 0-1-.445-1-1v-5c0-.555.445-1 1-1zm18 0h8c.555 0 1 .445 1 1v5c0 .555-.445 1-1 1h-8c-.555 0-1-.445-1-1v-5c0-.555.445-1 1-1z"/>
</svg>
