<svg xmlns="http://www.w3.org/2000/svg" viewBox="0 0 50 50">
  <path d="M22 2v16h-8.414L25 29.414 36.414 18H28V2h-6zm9 16a1 1 0 001-1 1 1 0 00-1-1 1 1 0 00-1 1 1 1 0 001 1zm-12 0a1 1 0 001-1 1 1 0 00-1-1 1 1 0 00-1 1 1 1 0 001 1zm5-14h2v16h5.586L25 26.586 18.414 20H24V4zM5 5a1 1 0 00-1 1v39a1 1 0 001 1h40a1 1 0 001-1V6a1 1 0 00-1-1H30.018v2H44v37h-2v-6a1 1 0 00-1-1H9a1 1 0 00-1 1v6H6V7h14.082V5H5zm11 2a1 1 0 00-1 1 1 1 0 001 1 1 1 0 001-1 1 1 0 00-1-1zm-6 0a1 1 0 00-1 1 1 1 0 001 1 1 1 0 001-1 1 1 0 00-1-1zm-4 4a1 1 0 001 1 1 1 0 001-1 1 1 0 00-1-1 1 1 0 00-1 1zm0 6a1 1 0 001 1 1 1 0 001-1 1 1 0 00-1-1 1 1 0 00-1 1zm0 6a1 1 0 001 1 1 1 0 001-1 1 1 0 00-1-1 1 1 0 00-1 1zm0 6a1 1 0 001 1 1 1 0 001-1 1 1 0 00-1-1 1 1 0 00-1 1zm0 6a1 1 0 001 1 1 1 0 001-1 1 1 0 00-1-1 1 1 0 00-1 1zm38 0a1 1 0 00-1-1 1 1 0 00-1 1 1 1 0 001 1 1 1 0 001-1zm0-6a1 1 0 00-1-1 1 1 0 00-1 1 1 1 0 001 1 1 1 0 001-1zm0-6a1 1 0 00-1-1 1 1 0 00-1 1 1 1 0 001 1 1 1 0 001-1zm0-6a1 1 0 00-1-1 1 1 0 00-1 1 1 1 0 001 1 1 1 0 001-1zm0-6a1 1 0 00-1-1 1 1 0 00-1 1 1 1 0 001 1 1 1 0 001-1zm-4-4a1 1 0 00-1 1 1 1 0 001 1 1 1 0 001-1 1 1 0 00-1-1zm-6 0a1 1 0 00-1 1 1 1 0 001 1 1 1 0 001-1 1 1 0 00-1-1zm-21 3a1 1 0 00-1 1 1 1 0 001 1 1 1 0 001-1 1 1 0 00-1-1zm6 0a1 1 0 00-1 1 1 1 0 001 1 1 1 0 001-1 1 1 0 00-1-1zm12 0a1 1 0 00-1 1 1 1 0 001 1 1 1 0 001-1 1 1 0 00-1-1zm6 0a1 1 0 00-1 1 1 1 0 001 1 1 1 0 001-1 1 1 0 00-1-1zm-27 3a1 1 0 00-1 1 1 1 0 001 1 1 1 0 001-1 1 1 0 00-1-1zm6 0a1 1 0 00-1 1 1 1 0 001 1 1 1 0 001-1 1 1 0 00-1-1zm18 0a1 1 0 00-1 1 1 1 0 001 1 1 1 0 001-1 1 1 0 00-1-1zm6 0a1 1 0 00-1 1 1 1 0 001 1 1 1 0 001-1 1 1 0 00-1-1zm-27 3a1 1 0 00-1 1 1 1 0 001 1 1 1 0 001-1 1 1 0 00-1-1zm24 0a1 1 0 00-1 1 1 1 0 001 1 1 1 0 001-1 1 1 0 00-1-1zm-27 3a1 1 0 00-1 1 1 1 0 001 1 1 1 0 001-1 1 1 0 00-1-1zm30 0a1 1 0 00-1 1 1 1 0 001 1 1 1 0 001-1 1 1 0 00-1-1zm-27 3a1 1 0 00-1 1 1 1 0 001 1 1 1 0 001-1 1 1 0 00-1-1zm24 0a1 1 0 00-1 1 1 1 0 001 1 1 1 0 001-1 1 1 0 00-1-1zm-27 3a1 1 0 00-1 1 1 1 0 001 1 1 1 0 001-1 1 1 0 00-1-1zm6 0a1 1 0 00-1 1 1 1 0 001 1 1 1 0 001-1 1 1 0 00-1-1zm18 0a1 1 0 00-1 1 1 1 0 001 1 1 1 0 001-1 1 1 0 00-1-1zm6 0a1 1 0 00-1 1 1 1 0 001 1 1 1 0 001-1 1 1 0 00-1-1zm-27 3a1 1 0 00-1 1 1 1 0 001 1 1 1 0 001-1 1 1 0 00-1-1zm6 0a1 1 0 00-1 1 1 1 0 001 1 1 1 0 001-1 1 1 0 00-1-1zm12 0a1 1 0 00-1 1 1 1 0 001 1 1 1 0 001-1 1 1 0 00-1-1zm6 0a1 1 0 00-1 1 1 1 0 001 1 1 1 0 001-1 1 1 0 00-1-1zm-27 3a1 1 0 00-1 1 1 1 0 001 1 1 1 0 001-1 1 1 0 00-1-1zm6 0a1 1 0 00-1 1 1 1 0 001 1 1 1 0 001-1 1 1 0 00-1-1zm6 0a1 1 0 00-1 1 1 1 0 001 1 1 1 0 001-1 1 1 0 00-1-1zm6 0a1 1 0 00-1 1 1 1 0 001 1 1 1 0 001-1 1 1 0 00-1-1zm6 0a1 1 0 00-1 1 1 1 0 001 1 1 1 0 001-1 1 1 0 00-1-1zm6 0a1 1 0 00-1 1 1 1 0 001 1 1 1 0 001-1 1 1 0 00-1-1zm-27 3a1 1 0 00-1 1 1 1 0 001 1 1 1 0 001-1 1 1 0 00-1-1zm6 0a1 1 0 00-1 1 1 1 0 001 1 1 1 0 001-1 1 1 0 00-1-1zm6 0a1 1 0 00-1 1 1 1 0 001 1 1 1 0 001-1 1 1 0 00-1-1zm6 0a1 1 0 00-1 1 1 1 0 001 1 1 1 0 001-1 1 1 0 00-1-1zm6 0a1 1 0 00-1 1 1 1 0 001 1 1 1 0 001-1 1 1 0 00-1-1zm-27 5h6v5h-6v-5zm8 0h6v5h-6v-5zm8 0h6v5h-6v-5zm8 0h6v5h-6v-5z"/>
</svg>
