<svg xmlns="http://www.w3.org/2000/svg" viewBox="0 0 50 50">
  <path d="M23 3a1 1 0 00-1 1v7.764l-4.895 9.789A1 1 0 0017 22v-2a1 1 0 00-1-1H3a1 1 0 00-.992 1.125l3 24A1 1 0 006 45h10a1 1 0 001-1v-1h1.146a1 1 0 00.018.05A3.02 3.02 0 0021 45h19a4 4 0 004-4c0-.822-.262-1.58-.643-2.215a1 1 0 00-.013-.021l-.016-.024A3.942 3.942 0 0046 35c0-.873-.258-1.828-.96-2.559a1 1 0 00.007-.005 1 1 0 00.008-.004C46.21 31.66 47 30.4 47 29c0-.875-.258-1.833-.965-2.564l.006-.006C47.272 25.675 48 24.39 48 23a4 4 0 00-4-4H29.354v-.002l.001-.004C30.363 15.77 31 13.463 31 12c0-1.955-.703-4.057-1.666-5.766-.481-.854-1.028-1.606-1.64-2.187C27.08 3.466 26.378 3 25.5 3H23zm1 2h1.5c.071 0 .407.11.816.498.41.388.87.998 1.276 1.719C28.404 8.658 29 10.555 29 12c0 .736-.563 3.23-1.555 6.402a1 1 0 00-.002.004l-.398 1.3A1 1 0 0028 21h16c1.19 0 2 .81 2 2 0 .797-.266 1.294-1.014 1.742l-1 .6a1 1 0 00-.234 1.523l.8.899a1 1 0 00.042.043c.264.264.406.683.406 1.193 0 .6-.412 1.336-1.055 1.766v.002l-.959.574a1 1 0 00-.234 1.523l.8.899a1 1 0 00.042.043c.264.264.406.683.406 1.193 0 .89-.512 1.583-1.316 1.852l-1.2.4a1 1 0 00-.527 1.484l.686 1.078c.219.366.357.808.357 1.186 0 1.19-.81 2-2 2H21c-.382 0-.814-.268-.959-.646l-.18-.63a1 1 0 00-.96-.724H17V24h1a1 1 0 001-1v-.764l4.795-9.59.1-.199A1 1 0 0024 12V5zM4.133 21H15v22H6.883l-2.75-22zM11.5 37a1.5 1.5 0 000 3 1.5 1.5 0 000-3z"/>
</svg>
