<svg xmlns="http://www.w3.org/2000/svg" viewBox="0 0 50 50">
  <path d="M25.002 1a1 1 0 00-.936.64L17.898 17.64l-16.955.963a1 1 0 00-.576 1.773l13.197 10.787-4.529 16.574a1 1 0 001.508 1.104L25 39.49l14.457 9.35a1 1 0 001.508-1.104l-4.53-16.574 13.198-10.787a1 1 0 00-.576-1.773l-16.955-.963L25.934 1.64A1 1 0 0025.002 1zM25 4.781l5.467 14.178a1 1 0 00.877.639l15.035.853-11.711 9.574a1 1 0 00-.332 1.04l4.01 14.673-12.803-8.277a1 1 0 00-1.086 0l-12.803 8.277 4.01-14.674a1 1 0 00-.332-1.039l-11.71-9.574 15.034-.853a1 1 0 00.877-.639L25 4.781zM24 20v6h-6v2h6v6h2v-6h6v-2h-6v-6h-2z"/>
</svg>
