<svg xmlns="http://www.w3.org/2000/svg" viewBox="0 0 50 50">
  <path d="M3 7a1 1 0 00-1 1v34a1 1 0 001 1h23.635a12.868 12.868 0 01-.465-2H4V9h42v19.057c.718.46 1.388.987 2 1.576V8a1 1 0 00-1-1H3zm22 6l-3.12 2.87-4.296-.579-.75 4.066L13 21.291 14.906 25 13 28.707l3.834 1.936.75 4.064 4.297-.576L25 37l1.447-1.33c.34-1.28.864-2.48 1.551-3.572l-.543-.075L25 34.281V15.72l2.455 2.26 3.34-.45.584 3.168L34.3 22.17 32.846 25l1.049 2.043a12.9 12.9 0 011.923-.635L35.094 25 37 21.293l-3.834-1.936-.75-4.064-4.297.576L25 13zm12 15l-.6 3.2c-.3.1-.7.2-1 .4l-2.7-1.9-3 3 1.8 2.5c-.1.4-.3.7-.4 1.1l-3.1.5V41l3.1.5c.1.3.2.7.4 1l-1.8 2.7 3 3 2.7-1.8c.4.2.7.3 1.1.4L37 50h4.1l.6-3.1c.3-.1.6-.2 1-.4l2.7 1.8 3-3-1.9-2.6c.2-.4.3-.8.4-1.1L50 41v-4.2l-3.2-.5c-.1-.3-.2-.7-.4-1l1.8-2.7-2.9-2.9-2.6 1.9c-.3-.2-.7-.3-1-.4l-.5-3.2H37zm1.7 2h.8l.4 2.7.6.2c.6.2 1.2.4 1.7.7l.6.4 2.3-1.7.5.5-1.6 2.3.3.5c.3.6.5 1.2.7 1.8l.2.6 2.8.4v.8l-2.7.6-.2.6c-.2.6-.4 1.2-.7 1.7l-.4.6 1.7 2.3-.6.6-2.3-1.6-.5.3c-.6.3-1.2.5-1.8.7l-.6.2-.5 2.8h-.8l-.4-2.7-.6-.2c-.6-.2-1.2-.4-1.7-.7l-.6-.4-2.4 1.6-.6-.6 1.6-2.3-.3-.5c-.3-.6-.5-1.3-.7-1.8l-.2-.6-2.7-.5v-.8l2.8-.5.1-.7c.1-.5.3-1.1.6-1.6l.4-.5-1.6-2.3.6-.6 2.3 1.6.5-.2c.7-.3 1.3-.6 1.9-.8l.6-.1.5-2.8zm.3 4.9c-2.2 0-4 1.8-4 4s1.8 4 4 4 4-1.7 4-4c0-2.2-1.8-4-4-4zm0 2.1c1.1 0 2 .8 2 2 0 1.1-.9 2-2 2s-2-.9-2-2 .9-2 2-2z"/>
</svg>
