<svg xmlns="http://www.w3.org/2000/svg" viewBox="0 0 50 50">
  <path d="M19.098 4c-3.91 0-6.657 1.473-8.36 3.71-1.703 2.235-2.414 5.114-2.77 8.009-.35 2.89-.343 5.82-.456 8.172-.059 1.18-.149 2.21-.309 2.984-.164.77-.414 1.238-.578 1.387a.996.996 0 00-.324.738c0 .695.383 1.336.87 1.75.493.41 1.083.684 1.774.91 1.125.375 2.68.574 4.285.762-.003.035 0 .047-.007.082-.309.781-1.04 1.402-2.192 2.004-1.187.613-2.726 1.164-4.289 1.867-1.566.703-3.168 1.57-4.437 2.926-1.27 1.355-2.168 3.21-2.301 5.64-.016.278.082.547.27.746.187.2.453.313.726.313h36a1.002 1.002 0 001-1.059c-.137-2.43-1.035-4.285-2.305-5.64-1.27-1.356-2.87-2.223-4.433-2.926-1.567-.703-3.106-1.254-4.293-1.867-1.157-.602-1.89-1.227-2.2-2.008l-.007-.09c1.742-.222 3.394-.515 4.57-.96.7-.27 1.281-.563 1.75-.934.473-.371.918-.887.918-1.614 0-.285-.117-.554-.328-.746-.137-.12-.367-.539-.504-1.246-.14-.707-.211-1.664-.234-2.754-.051-2.183.074-4.91-.047-7.59-.121-2.68-.465-5.332-1.606-7.449-1.093-2.023-3.101-3.449-5.918-3.57C22.933 5.152 21.566 4 19.098 4zm0 2c2.101 0 3.172 1.18 3.172 1.18.187.203.453.32.73.32 2.426 0 3.637.938 4.516 2.566.882 1.63 1.257 4.036 1.375 6.59.113 2.559-.008 5.25.043 7.543.023 1.145.09 2.188.27 3.098.12.617.339 1.16.636 1.652-.223.176-.649.41-1.223.63-1.152.44-2.883.835-4.914 1.026a1 1 0 00-.902.954c-.04.105-.102.128-.102.242 0 .535.102.633.102 1 0 .117.02.234.058.344.555 1.496 1.817 2.425 3.188 3.136 1.375.715 2.93 1.258 4.39 1.918 1.465.66 2.813 1.422 3.797 2.473.786.832 1.274 1.941 1.536 3.328H2.227c.265-1.387.753-2.496 1.539-3.328.984-1.05 2.332-1.813 3.796-2.473 1.461-.66 3.016-1.203 4.391-1.918 1.371-.71 2.633-1.64 3.188-3.136.02-.06.035-.118.046-.18a7.944 7.944 0 00.114-1.367 1 1 0 00-.906-.993c-2.016-.195-3.723-.476-4.817-.84-.547-.183-.933-.394-1.117-.546-.07-.059-.04-.055-.063-.082.36-.543.614-1.153.758-1.856.203-.96.293-2.074.352-3.293.12-2.433.113-5.308.445-8.031.336-2.719 1.02-5.258 2.375-7.035C13.684 7.14 15.66 6 19.098 6zM33 16v2h17v-2zm0 8v2h17v-2zm-2 8v2h19v-2z"/>
</svg>
