<svg xmlns="http://www.w3.org/2000/svg" viewBox="0 0 50 50">
  <path d="M22.205 2a1 1 0 00-.986.84l-.955 5.853a16.83 16.83 0 00-3.438 1.412l-4.83-3.45a1.002 1.002 0 00-1.289.105l-3.889 3.886a1 1 0 00-.111 1.282l3.398 4.861a16.984 16.984 0 00-1.437 3.459l-5.83.973a.998.998 0 00-.836.984v5.5c0 .485.347.9.824.984l5.832 1.036a16.81 16.81 0 001.438 3.459l-3.442 4.812c-.284.398-.237.943.108 1.29l3.886 3.892a1 1 0 001.282.111l4.87-3.41a16.894 16.894 0 003.444 1.424l.977 5.861c.08.482.495.836.984.836h5.5a1 1 0 00.984-.824l.262-1.479A12.128 12.128 0 0127.2 44.14L26.867 46h-3.812l-.944-5.662a.997.997 0 00-.746-.807 14.93 14.93 0 01-4.103-1.693.998.998 0 00-1.088.037L11.47 41.17l-2.696-2.697 3.323-4.649c.232-.325.25-.757.043-1.1a14.842 14.842 0 01-1.711-4.115 1 1 0 00-.797-.742l-5.631-.998v-3.814l5.627-.938c.393-.065.71-.358.807-.744.365-1.457.938-2.84 1.71-4.115.205-.34.191-.768-.035-1.092l-3.285-4.697 2.697-2.696 4.663 3.332a.995.995 0 001.095.045 14.816 14.816 0 014.106-1.685 1 1 0 00.748-.81L23.057 4h3.81l.994 5.686a1 1 0 00.743.798c1.44.36 2.818.934 4.091 1.704a.999.999 0 001.102-.045l4.678-3.364 2.695 2.694-3.332 4.75a.997.997 0 00-.04 1.088 14.991 14.991 0 011.686 4.07 1 1 0 00.81.744l5.708.934v3.81l-1.865.326c.577.533 1.1 1.121 1.562 1.758l1.475-.26A.998.998 0 0048 27.71v-5.5a1 1 0 00-.84-.986l-5.908-.967a16.93 16.93 0 00-1.412-3.404l3.45-4.916a1 1 0 00-.112-1.282l-3.89-3.888a1 1 0 00-1.292-.104l-4.842 3.48a16.815 16.815 0 00-3.433-1.425l-1.03-5.889A1.003 1.003 0 0027.705 2h-5.5zM25 17c-4.411 0-8 3.589-8 8 0 4.209 3.27 7.662 7.4 7.97.178-.683.414-1.345.704-1.976-.035 0-.069.006-.104.006-3.309 0-6-2.691-6-6s2.691-6 6-6 6 2.691 6 6c0 .035-.006.069-.006.104.631-.29 1.293-.526 1.977-.704C32.66 20.27 29.209 17 25 17zm11 9c-5.511 0-10 4.489-10 10s4.489 10 10 10a9.947 9.947 0 006.322-2.264l5.971 5.971 1.414-1.414-5.97-5.97A9.947 9.947 0 0046 36c0-5.511-4.489-10-10-10zm0 2c4.43 0 8 3.57 8 8s-3.57 8-8 8-8-3.57-8-8 3.57-8 8-8z"/>
</svg>
