<svg xmlns="http://www.w3.org/2000/svg" viewBox="0 0 50 50">
  <path d="M7 7c-1.654 0-3 1.346-3 3v30c0 1.654 1.346 3 3 3h18.635a12.984 12.984 0 01-.465-2H7c-.551 0-1-.449-1-1V15h38v12.475c.708.37 1.376.804 2 1.293V10c0-1.654-1.346-3-3-3H7zm0 2h36c.551 0 1 .449 1 1v3H6v-3c0-.551.449-1 1-1zm1 1a1 1 0 00-1 1 1 1 0 001 1 1 1 0 001-1 1 1 0 00-1-1zm3 0a1 1 0 00-1 1 1 1 0 001 1 1 1 0 001-1 1 1 0 00-1-1zm3 0a1 1 0 00-1 1 1 1 0 001 1 1 1 0 001-1 1 1 0 00-1-1zm22.006 18l-.602 3.2c-.3.1-.7.2-1 .4l-2.699-1.9-3 3 1.8 2.5c-.1.4-.3.7-.4 1.1l-3.1.5V41l3.1.5c.1.3.2.7.4 1l-1.8 2.7 3 3 2.7-1.8c.4.2.7.3 1.1.4l.5 3.2h4.1l.6-3.1c.3-.1.6-.2 1-.4l2.7 1.8 3-3-1.9-2.6c.2-.4.3-.8.4-1.1l3.1-.6v-4.2l-3.2-.5c-.1-.3-.2-.7-.4-1l1.8-2.7-2.9-2.9-2.6 1.9c-.3-.2-.7-.3-1-.4l-.5-3.2h-4.2zm1.7 2h.8l.398 2.7.602.2c.6.2 1.2.4 1.7.7l.599.4 2.3-1.7.5.5-1.6 2.3.3.5c.3.6.5 1.2.7 1.8l.2.6 2.8.4v.8l-2.7.6-.2.6c-.2.6-.4 1.2-.7 1.7l-.4.6 1.7 2.3-.6.6-2.3-1.6-.5.3c-.6.3-1.2.5-1.8.7l-.6.2-.5 2.8h-.8l-.4-2.7-.6-.2c-.6-.2-1.2-.4-1.7-.7l-.6-.4-2.4 1.6-.6-.6 1.6-2.3-.3-.5c-.3-.6-.5-1.3-.7-1.8l-.2-.6-2.7-.5v-.8l2.8-.5.1-.7c.1-.5.3-1.1.6-1.6l.4-.5-1.6-2.3.6-.6 2.3 1.6.5-.2c.7-.3 1.3-.6 1.9-.8l.6-.1.5-2.8zm.3 4.9c-2.2 0-4 1.8-4 4s1.8 4 4 4 4-1.7 4-4c0-2.2-1.8-4-4-4zm0 2.1c1.1 0 2 .8 2 2 0 1.1-.9 2-2 2s-2-.9-2-2 .9-2 2-2z"/>
</svg>
