<svg xmlns="http://www.w3.org/2000/svg" viewBox="0 0 50 50">
  <path d="M8 3.9c-1.645 0-3 1.355-3 3v35c0 1.646 1.355 3 3 3h34c1.645 0 3-1.354 3-3V13.1a1 1 0 00-.293-.707l-8.2-8.2a1 1 0 00-.706-.293H8zm0 2h5v11c0 1.646 1.355 3 3 3h17c1.645 0 3-1.354 3-3V6.514l7 7V41.9c0 .555-.445 1-1 1h-5v-15c0-1.645-1.355-3-3-3H16c-1.645 0-3 1.355-3 3v15H8c-.555 0-1-.445-1-1v-35c0-.554.445-1 1-1zm7 0h19v11c0 .555-.445 1-1 1H16c-.555 0-1-.445-1-1v-11zm13 2a1 1 0 00-1 1v6a1 1 0 001 1h3a1 1 0 001-1v-6a1 1 0 00-1-1h-3zm1 2h1v4h-1v-4zm-13 17h18c.555 0 1 .446 1 1v15H15v-15c0-.554.445-1 1-1zm-7 12v2h2v-2H9zm30 0v2h2v-2h-2z"/>
</svg>
