<svg xmlns="http://www.w3.org/2000/svg" viewBox="0 0 50 50">
  <path d="M5 3c-1.094 0-2 .906-2 2v4c0 1.094.906 2 2 2h8c1.094 0 2-.906 2-2V5c0-1.094-.906-2-2-2zm16 0c-1.094 0-2 .906-2 2v4c0 1.094.906 2 2 2h8c1.094 0 2-.906 2-2V5c0-1.094-.906-2-2-2zm16 0c-1.094 0-2 .906-2 2v4c0 1.094.906 2 2 2h8c1.094 0 2-.906 2-2V5c0-1.094-.906-2-2-2zM5 5h8v4H5zm16 0h8v4h-8zm16 0h8v4h-8zM5 15c-1.094 0-2 .906-2 2v4c0 1.094.906 2 2 2h8c1.094 0 2-.906 2-2v-4c0-1.094-.906-2-2-2zm16 0c-1.094 0-2 .906-2 2v4c0 1.094.906 2 2 2h8c1.094 0 2-.906 2-2v-4c0-1.094-.906-2-2-2zm16 0c-1.094 0-2 .906-2 2v4c0 1.094.906 2 2 2h8c1.094 0 2-.906 2-2v-4c0-1.094-.906-2-2-2zM5 17h8v4H5zm16 0h8v4h-8zm16 0h8v4h-8zM5 27c-1.094 0-2 .906-2 2v4c0 1.094.906 2 2 2h8c1.094 0 2-.906 2-2v-4c0-1.094-.906-2-2-2zm16 0c-1.094 0-2 .906-2 2v4c0 1.094.906 2 2 2h8c1.094 0 2-.906 2-2v-4c0-1.094-.906-2-2-2zm16 0c-1.094 0-2 .906-2 2v4c0 1.094.906 2 2 2h8c1.094 0 2-.906 2-2v-4c0-1.094-.906-2-2-2zM5 29h8v4H5zm16 0h8v4h-8zm16 0h8v4h-8zM21 39c-1.094 0-2 .906-2 2v4c0 1.094.906 2 2 2h8c1.094 0 2-.906 2-2v-4c0-1.094-.906-2-2-2zm0 2h8v4h-8z"/>
</svg>
