<svg xmlns="http://www.w3.org/2000/svg" viewBox="0 0 50 50">
  <path d="M25 2C12.31 2 2 12.31 2 25c0 7.61 3.705 14.367 9.408 18.55a1 1 0 101.184-1.61C7.382 38.117 4 31.961 4 25 4 13.39 13.39 4 25 4s21 9.39 21 21c0 6.962-3.383 13.117-8.592 16.94a1 1 0 101.184 1.61C44.295 39.367 48 32.61 48 25 48 12.31 37.69 2 25 2zm-.016 19.986A1 1 0 0024 23v21.586l-6.293-6.293a1 1 0 00-.717-.303 1 1 0 00-.697 1.717l7.912 7.912a1 1 0 001.592-.002l7.91-7.91a1 1 0 10-1.414-1.414L26 44.586V23a1 1 0 00-1.016-1.014z"/>
</svg>
