<svg xmlns="http://www.w3.org/2000/svg" viewBox="0 0 50 50">
  <path d="M25 2a1 1 0 00-1 1 1 1 0 001 1 1 1 0 001-1 1 1 0 00-1-1zm-4.287.422a1 1 0 00-.2.02 1 1 0 00-.784 1.175 1 1 0 001.175.787 1 1 0 00.785-1.175 1 1 0 00-.976-.807zm8.605 0a1 1 0 00-1.006.805 1 1 0 00.786 1.175 1 1 0 001.175-.785 1 1 0 00-.785-1.176 1 1 0 00-.17-.02zm-12.73 1.252a1 1 0 00-.39.076 1 1 0 00-.542 1.307 1 1 0 001.307.54 1 1 0 00.54-1.306 1 1 0 00-.915-.617zm16.853 0a1 1 0 00-.945.617 1 1 0 00.541 1.307 1 1 0 001.307-.541 1 1 0 00-.541-1.307 1 1 0 00-.362-.076zM12.79 5.707a1 1 0 00-.566.17 1 1 0 00-.278 1.387 1 1 0 001.389.275 1 1 0 00.275-1.387 1 1 0 00-.82-.445zm24.451 0a1 1 0 00-.85.443 1 1 0 00.278 1.387 1 1 0 001.387-.275 1 1 0 00-.276-1.387 1 1 0 00-.539-.168zM9.46 8.443a1 1 0 00-.723.293 1 1 0 000 1.414 1 1 0 001.414 0 1 1 0 000-1.414 1 1 0 00-.691-.293zm31.111 0a1 1 0 00-.72.293 1 1 0 000 1.414 1 1 0 001.414 0 1 1 0 000-1.414 1 1 0 00-.694-.293zM25 9C16.175 9 9 16.175 9 25s7.175 16 16 16 16-7.175 16-16S33.825 9 25 9zm0 2c7.744 0 14 6.256 14 14s-6.256 14-14 14-14-6.256-14-14 6.256-14 14-14zm-18.273.775a1 1 0 00-.85.446 1 1 0 00.275 1.386 1 1 0 001.387-.275 1 1 0 00-.275-1.387 1 1 0 00-.537-.17zm36.576 0a1 1 0 00-.567.17 1 1 0 00-.275 1.387 1 1 0 001.387.275 1 1 0 00.275-1.386 1 1 0 00-.82-.446zM4.697 15.58a1 1 0 00-.945.617 1 1 0 00.541 1.307 1 1 0 001.307-.541 1 1 0 00-.541-1.307 1 1 0 00-.362-.076zm40.635 0a1 1 0 00-.389.076 1 1 0 00-.543 1.307 1 1 0 001.307.54 1 1 0 00.543-1.306 1 1 0 00-.918-.617zM25 16c-4.947 0-9 4.053-9 9s4.053 9 9 9 9-4.053 9-9-4.053-9-9-9zm21.582 3.707a1 1 0 00-.2.02 1 1 0 00-.784 1.175 1 1 0 001.175.787 1 1 0 00.786-1.175 1 1 0 00-.977-.807zm-43.133.002a1 1 0 00-1.008.805 1 1 0 00.788 1.175 1 1 0 001.175-.787 1 1 0 00-.787-1.175 1 1 0 00-.168-.018zM25 20c2.785 0 5 2.215 5 5s-2.215 5-5 5a4.97 4.97 0 01-5-5c0-2.785 2.215-5 5-5zM3 24a1 1 0 00-1 1 1 1 0 001 1 1 1 0 001-1 1 1 0 00-1-1zm44 0a1 1 0 00-1 1 1 1 0 001 1 1 1 0 001-1 1 1 0 00-1-1zm-.396 4.291a1 1 0 00-1.006.805 1 1 0 00.785 1.175 1 1 0 001.176-.785 1 1 0 00-.786-1.175 1 1 0 00-.17-.02zm-43.176.002a1 1 0 00-.2.02 1 1 0 00-.785 1.175 1 1 0 001.176.785 1 1 0 00.785-1.175 1 1 0 00-.976-.805zm1.254 4.125a1 1 0 00-.389.076 1 1 0 00-.541 1.307 1 1 0 001.307.54 1 1 0 00.54-1.306 1 1 0 00-.917-.617zm40.666 0a1 1 0 00-.946.617 1 1 0 00.541 1.307 1 1 0 001.307-.541 1 1 0 00-.541-1.307 1 1 0 00-.361-.076zm-2.037 3.803a1 1 0 00-.85.445 1 1 0 00.277 1.387 1 1 0 001.387-.276 1 1 0 00-.275-1.386 1 1 0 00-.54-.17zm-36.59.002a1 1 0 00-.567.168 1 1 0 00-.275 1.386 1 1 0 001.387.276 1 1 0 00.275-1.387 1 1 0 00-.82-.443zm2.736 3.334a1 1 0 00-.72.29 1 1 0 000 1.417 1 1 0 001.413-.002 1 1 0 000-1.414 1 1 0 00-.693-.291zm31.113 0a1 1 0 00-.722.293 1 1 0 000 1.414 1 1 0 001.414 0 1 1 0 000-1.414 1 1 0 00-.692-.293zM12.797 42.29a1 1 0 00-.85.445 1 1 0 00.276 1.387 1 1 0 001.386-.275 1 1 0 00-.275-1.389 1 1 0 00-.537-.168zm24.437 0a1 1 0 00-.566.168 1 1 0 00-.275 1.387 1 1 0 001.386.275 1 1 0 00.276-1.387 1 1 0 00-.82-.443zm-20.63 2.033a1 1 0 00-.946.617 1 1 0 00.541 1.307 1 1 0 001.307-.541 1 1 0 00-.541-1.307 1 1 0 00-.361-.076zm16.822 0a1 1 0 00-.389.076 1 1 0 00-.54 1.307 1 1 0 001.306.541 1 1 0 00.54-1.307 1 1 0 00-.917-.617zm-12.692 1.254a1 1 0 00-1.005.805 1 1 0 00.785 1.176 1 1 0 001.175-.786 1 1 0 00-.785-1.175 1 1 0 00-.17-.02zm8.563 0a1 1 0 00-.2.02 1 1 0 00-.785 1.175 1 1 0 001.176.786 1 1 0 00.785-1.176 1 1 0 00-.976-.805zM25 46a1 1 0 00-1 1 1 1 0 001 1 1 1 0 001-1 1 1 0 00-1-1z"/>
</svg>
