<svg xmlns="http://www.w3.org/2000/svg" viewBox="0 0 50 50">
  <path d="M23.238 4a1 1 0 00-.234.025C16.558 4.1 12.247 6.962 9.654 9.83c-2.626 2.906-3.603 5.856-3.603 5.856a1 1 0 101.898.628s.845-2.55 3.19-5.144C13.483 8.576 17.233 6 23.239 6c5.33 0 9.318 1.977 12.115 4.219 2.12 1.7 3.547 3.61 4.255 4.781H35a1 1 0 100 2h8V9a1 1 0 00-1.016-1.014A1 1 0 0041 9v4.42c-.892-1.374-2.324-3.098-4.396-4.76-3.04-2.437-7.44-4.588-13.165-4.64a1 1 0 00-.2-.02zM9.984 19.986a1 1 0 00-.142.014H6c-1.645 0-3 1.355-3 3v20c0 1.645 1.355 3 3 3h3.832a1 1 0 00.326 0h30.674a1 1 0 00.326 0H44c1.645 0 3-1.355 3-3V23c0-1.645-1.355-3-3-3h-2.832a1 1 0 00-.326 0H10.168a1 1 0 00-.184-.014zM6 22h3v22H6c-.555 0-1-.445-1-1V23c0-.555.445-1 1-1zm5 0h29v22H11V22zm31 0h2c.555 0 1 .445 1 1v20c0 .555-.445 1-1 1h-2V22zM6.984 28.986A1 1 0 006 30v6a1 1 0 102 0v-6a1 1 0 00-1.016-1.014z"/>
</svg>
