<svg xmlns="http://www.w3.org/2000/svg" viewBox="0 0 50 50">
  <path d="M9.805 7a3 3 0 00-2.82 1.977c-.005.007-.008.02-.012.03l-3.035 9.337A.987.987 0 013 19s-.457-.016-.945.23C1.562 19.477 1 20.168 1 21v18c0 2.2 1.8 4 4 4h40c2.2 0 4-1.8 4-4V21c0-1.02-.79-1.867-1.781-1.98A1.34 1.34 0 0047 19c-.21 0-.18-.008-.234-.066-.059-.055-.18-.254-.301-.586l-.004-.004-3.031-9.336c-.004-.012-.008-.024-.012-.031A3.004 3.004 0 0040.598 7zm0 2h14.394a.99.99 0 01.938.656h.004l3.03 9.336.013.031A2.999 2.999 0 0031 21h16v18c0 1.117-.883 2-2 2H5c-1.117 0-2-.883-2-2V21a3.01 3.01 0 002.82-1.973l.012-.035 3.031-9.336h.004A.992.992 0 019.805 9zm17.222 0h13.57c.426 0 .794.258.938.656h.004l3.031 9.336c0 .004 0 .004.004.008H31a.987.987 0 01-.938-.656l-3.03-9.336c-.005-.004-.005-.004-.005-.008zM14 11a1.006 1.006 0 00-.879.496 1.01 1.01 0 000 1.008c.184.312.52.5.879.496h6c.36.004.695-.184.879-.496a1.01 1.01 0 000-1.008c-.184-.312-.52-.5-.879-.496zm0 3a1.006 1.006 0 00-.879.496 1.01 1.01 0 000 1.008c.184.312.52.5.879.496h6c.36.004.695-.184.879-.496a1.01 1.01 0 000-1.008c-.184-.312-.52-.5-.879-.496zm0 3a1.006 1.006 0 00-.879.496 1.01 1.01 0 000 1.008c.184.312.52.5.879.496h6c.36.004.695-.184.879-.496a1.01 1.01 0 000-1.008c-.184-.312-.52-.5-.879-.496z"/>
</svg>
