<svg xmlns="http://www.w3.org/2000/svg" viewBox="0 0 50 50">
  <path d="M25 2C12.31 2 2 12.31 2 25s10.31 23 23 23 23-10.31 23-23S37.69 2 25 2zm0 2c11.61 0 21 9.39 21 21s-9.39 21-21 21S4 36.61 4 25 13.39 4 25 4zm.29 8.508c-3.73 0-6.204 2.26-6.743 5.703-.035.216.071.358.287.394l2.26.397c.216.036.358-.072.394-.287.43-2.188 1.72-3.408 3.729-3.408 2.045 0 3.478 1.292 3.478 3.336 0 1.22-.43 2.044-1.683 3.765l-2.405 3.299c-.753 1.041-1.074 1.794-1.074 3.23v1.47c0 .214.143.359.358.355h2.367c.215 0 .357-.143.357-.358v-1.146c0-1.22.217-1.722.934-2.69l2.402-3.3c1.22-1.686 1.828-2.94 1.828-4.663 0-3.55-2.618-6.097-6.49-6.097zm-1.577 20.984c-.216 0-.36.145-.36.36v3.084c0 .215.143.357.36.357h2.726c.214 0 .358-.141.358-.357v-3.084c0-.214-.143-.36-.358-.36h-2.726z"/>
</svg>
