<svg xmlns="http://www.w3.org/2000/svg" viewBox="0 0 50 50">
  <path d="M5.8 5A2.818 2.818 0 003 7.8V44a1 1 0 001 1h25.102a11.894 11.894 0 01-.71-2H5V14h40v15.102c.707.324 1.375.716 2 1.166V7.8C47 6.268 45.733 5 44.2 5H5.8zm0 2h38.4c.466 0 .8.334.8.8V12H5V7.8c0-.466.334-.8.8-.8zM10 20a1 1 0 00-1 1 1 1 0 001 1 1 1 0 001-1 1 1 0 00-1-1zm5 0v2h25v-2H15zm-5 7a1 1 0 00-1 1 1 1 0 001 1 1 1 0 001-1 1 1 0 00-1-1zm5 0v2h18v-2H15zm25 3c-5.511 0-10 4.489-10 10s4.489 10 10 10 10-4.489 10-10-4.489-10-10-10zm0 2c4.43 0 8 3.57 8 8s-3.57 8-8 8-8-3.57-8-8 3.57-8 8-8zm-30 2a1 1 0 00-1 1 1 1 0 001 1 1 1 0 001-1 1 1 0 00-1-1zm5 0v2h13v-2H15zm21.49 1.49a1 1 0 00-.697 1.717L38.586 40l-2.793 2.793a1 1 0 101.414 1.414L40 41.414l2.793 2.793a1 1 0 101.414-1.414L41.414 40l2.793-2.793a1 1 0 00-.727-1.717 1 1 0 00-.687.303L40 38.586l-2.793-2.793a1 1 0 00-.717-.303z"/>
</svg>
