<svg xmlns="http://www.w3.org/2000/svg" viewBox="0 0 50 50">
  <path d="M26.5 2C13.62 2 3.147 12.39 3.006 25.238v.024C3.146 37.833 13.397 48 26 48c8.066 0 15.175-4.159 19.28-10.453a1 1 0 10-1.676-1.094C39.856 42.201 33.38 46 26 46 14.475 46 5.143 36.743 5.008 25.25 5.143 13.481 14.698 4 26.5 4c9.98 0 18.072 7.877 18.463 17.76a17.648 17.648 0 01-4.34 10.832C38.14 35.429 35.033 37 33 37a1.982 1.982 0 01-1.994-1.984c.009-.103.204-2.228 1.146-4.702a1 1 0 00.008-.027l6.768-16.916a1 1 0 00-.957-1.383 1 1 0 00-.899.64l-1.343 3.36c-.61-1.36-1.452-2.438-2.504-3.226C31.524 11.488 29.37 11 27 11c-2.803 0-6.409 1.748-9.477 4.896C14.456 19.045 12 23.68 12 29.5c0 5.235 4.265 9.5 9.5 9.5 3.05 0 5.284-1.281 6.84-2.838.25-.25.48-.507.701-.767C29.244 37.406 30.938 39 33 39c2.967 0 6.36-1.929 9.127-5.092 2.42-2.766 4.335-6.538 4.777-10.965A1 1 0 0047 22.5c0-.33-.01-.658-.025-.984.004-.174.025-.34.025-.516a1 1 0 00-.094-.432C45.93 10.162 37.16 2 26.5 2zm.5 11c2.097 0 3.778.429 5.025 1.363 1.201.9 2.082 2.307 2.532 4.557l-4.258 10.642a1 1 0 00-.016.04l-.36.896a1 1 0 00-.05.078c-.785 1.256-1.659 2.883-2.947 4.172C25.637 36.038 24.012 37 21.5 37a7.486 7.486 0 01-7.5-7.5c0-5.262 2.196-9.378 4.955-12.209C21.714 14.46 25.11 13 27 13z"/>
</svg>
