<svg xmlns="http://www.w3.org/2000/svg" viewBox="0 0 50 50">
  <path d="M25 3C12.855 3 3 12.855 3 25c0 5.033 1.674 9.64 4.473 13.344l-5.18-1.584a1 1 0 10-.586 1.914l8.938 2.73 1.242-9.195a1 1 0 00-.969-1.148 1 1 0 00-1.014.88l-.72 5.344A19.987 19.987 0 015 25C5 13.935 13.935 5 25 5V3zm2.111.076l-.283 1.977.994.146c.993.136 0 0 .992.137l.284-1.977-.994-.146-.993-.137zm4.12.799l-.655 1.889.944.322.945.322.654-1.888-1.889-.645zm3.878 1.56l-.996 1.727.864.502.875.504.996-1.738-1.739-.994zm4.246 3.16l-1.242 9.196a1 1 0 101.983.268l.72-5.344A19.987 19.987 0 0145 25c0 11.065-8.935 20-20 20v2c12.145 0 22-9.855 22-22 0-5.033-1.674-9.64-4.473-13.344l5.18 1.584a1 1 0 10.586-1.914l-8.938-2.73zM14.08 41.79l-1.002 1.732 1.735 1.002 1.003-1.722-1.736-1.012zm3.38 1.773l-.661 1.885 1.885.653.662-1.885-.942-.326-.943-.327zm3.645 1.086l-.289 1.977.993.15.992.14.29-1.976-.993-.15-.993-.14z"/>
</svg>
