<svg xmlns="http://www.w3.org/2000/svg" viewBox="0 0 50 50">
  <path d="M.813 0A1 1 0 000 1v12c0 .55.45 1 1 1h12c.55 0 1-.45 1-1V1c0-.55-.45-1-1-1H.812zM2 2h10v10H2zm8.25 1.344L6.406 7.625 3.656 5.25l-1.312 1.5 3.5 3 .75.656.656-.75 4.5-5zM20 6.03V7.97h30V6.03zM.812 18A1 1 0 000 19v12c0 .55.45 1 1 1h12c.55 0 1-.45 1-1V19c0-.55-.45-1-1-1H.812zM2 20h10v10H2zm8.25 1.344l-3.844 4.281-2.75-2.375-1.312 1.5 3.5 3 .75.656.656-.75 4.5-5zM20 24.03v1.938h30V24.03zM.812 36A1 1 0 000 37v12c0 .55.45 1 1 1h12c.55 0 1-.45 1-1V37c0-.55-.45-1-1-1H.812zM2 38h10v10H2zm18 4.031v1.938h30V42.03z"/>
</svg>
