<svg xmlns="http://www.w3.org/2000/svg" viewBox="0 0 32 32">
  <path d="M16 2c-1.258 0-2.152.89-2.594 2H5v25h22V4h-8.406C18.152 2.89 17.258 2 16 2zm0 2c.566 0 1 .434 1 1v1h3v2h-8V6h3V5c0-.566.434-1 1-1zM7 6h3v4h12V6h3v21H7zm13 5l-2 2h1v1h2v-1h1zm-9.594 2L9 14.438l1.094 1.062L9 16.594 10.406 18l1.094-1.094L12.594 18 14 16.562 12.906 15.5 14 14.406 12.594 13 11.5 14.094zM20 15c-.55 0-1 .45-1 1s.45 1 1 1 1-.45 1-1-.45-1-1-1zm-2.219 1.813l-5.875 4.875 1.281 1.53 5.876-4.874zM19.406 20L18 21.438l1.094 1.062L18 23.594 19.438 25l1.062-1.063L21.594 25 23 23.562 21.937 22.5 23 21.406 21.594 20 20.5 21.094zM11 23c-.55 0-1 .45-1 1s.45 1 1 1 1-.45 1-1-.45-1-1-1z"/>
</svg>
