<svg xmlns="http://www.w3.org/2000/svg" viewBox="0 0 50 50">
  <path d="M4 2c-1.093 0-2 .907-2 2v18c0 1.093.907 2 2 2h19.834L11.129 46.508A1 1 0 0012 48h35a1 1 0 00.871-1.492L34 21.936V4c0-1.093-.907-2-2-2H4zm0 2h28v.521c-.334.268-2.71 2.174-5.527 4.44-3.01 2.42-6.074 4.887-6.618 5.346A2.883 2.883 0 0118 15a2.873 2.873 0 01-1.854-.693c-.545-.462-3.61-2.926-6.619-5.346A6342.672 6342.672 0 004 4.52V4zm0 3.084c1.002.804 2.095 1.683 4.275 3.436 1.416 1.138 1.912 1.546 3.096 2.501L4 18.918V7.084zm28 0v11.309l-1.629-2.885a1 1 0 00-.914-.506 1 1 0 00-.828.506l-.666 1.181-3.957-3.166c1.276-1.03 2.018-1.636 3.719-3.003 2.18-1.754 3.273-2.632 4.275-3.436zm-19.035 7.225c.501.406 1.778 1.432 1.889 1.525A4.893 4.893 0 0018 17c.74 0 1.991-.192 3.145-1.166.074-.063 1.006-.811 1.267-1.023l4.553 3.642-2 3.547H4v-.52l8.965-7.171zM29.5 18.035L45.287 46H13.713L29.5 18.035zM28.36 26c-.24 0-.36.1-.36.3v11.4c0 .2.12.3.36.3h2.28c.24 0 .36-.1.36-.3V26.3c0-.2-.12-.3-.36-.3h-2.28zm-.014 14c-.231 0-.346.111-.346.334v2.334c0 .222.115.332.346.332h2.308c.231 0 .346-.111.346-.334v-2.334c0-.222-.115-.332-.346-.332h-2.308z"/>
</svg>
