<svg xmlns="http://www.w3.org/2000/svg" viewBox="0 0 50 50">
  <path d="M7.984 1.986A1 1 0 007 3v7H5c-1.645 0-3 1.355-3 3v2c0 1.645 1.355 3 3 3h6c1.645 0 3-1.355 3-3v-2c0-1.645-1.355-3-3-3H9V3a1 1 0 00-1.016-1.014zm17 0A1 1 0 0024 3v28h-2c-1.645 0-3 1.355-3 3v2c0 1.645 1.355 3 3 3h6c1.645 0 3-1.355 3-3v-2c0-1.645-1.355-3-3-3h-2V3a1 1 0 00-1.016-1.014zm17 0A1 1 0 0041 3v10h-2c-1.645 0-3 1.355-3 3v2c0 1.645 1.355 3 3 3h6c1.645 0 3-1.355 3-3v-2c0-1.645-1.355-3-3-3h-2V3a1 1 0 00-1.016-1.014zM5 12h2.832a1 1 0 00.326 0H11c.555 0 1 .445 1 1v2c0 .555-.445 1-1 1H5c-.555 0-1-.445-1-1v-2c0-.555.445-1 1-1zm34 3h2.832a1 1 0 00.326 0H45c.555 0 1 .445 1 1v2c0 .555-.445 1-1 1h-6c-.555 0-1-.445-1-1v-2c0-.555.445-1 1-1zM7 19v28a1 1 0 102 0V19H7zm34 3v25a1 1 0 102 0V22h-2zM22 33h2.832a1 1 0 00.326 0H28c.555 0 1 .445 1 1v2c0 .555-.445 1-1 1h-6c-.555 0-1-.445-1-1v-2c0-.555.445-1 1-1zm2 7v7a1 1 0 102 0v-7h-2z"/>
</svg>
