<svg xmlns="http://www.w3.org/2000/svg" viewBox="0 0 50 50">
  <path d="M7 7c-1.654 0-3 1.346-3 3v30c0 1.654 1.346 3 3 3h16.932a12.857 12.857 0 01-1.02-2H7c-.552 0-1-.449-1-1V15h38v9.564c.704.335 1.368.726 2 1.153V10c0-1.654-1.346-3-3-3H7zm0 2h36c.552 0 1 .449 1 1v3H6v-3c0-.551.448-1 1-1zm1 1a1 1 0 00-1 1 1 1 0 001 1 1 1 0 001-1 1 1 0 00-1-1zm3 0a1 1 0 00-1 1 1 1 0 001 1 1 1 0 001-1 1 1 0 00-1-1zm3 0a1 1 0 00-1 1 1 1 0 001 1 1 1 0 001-1 1 1 0 00-1-1zm23 15c-5.437 0-10.088 2.962-12.023 7.146h-.002a10.216 10.216 0 00-.961 4.305c0 2.271.769 4.385 2.07 6.166a12.12 12.12 0 002.512 2.522l-.034.125c-.145.544-.46 1.402-1.154 2.398l-.535.766a1.002 1.002 0 00.82 1.572h.934a8.027 8.027 0 004.37-1.281l1.503-1.014c.668.098 1.834.197 2.5.197 8.468 0 13-5.316 13-11.45C50 30.136 44.168 25 37 25zm0 2c6.065 0 11 4.24 11 9.451 0 4.705-3.401 9.451-11 9.451-.529 0-1.583-.083-2.21-.175a2.005 2.005 0 00-1.406.32l-1.464.986a6.058 6.058 0 01-2.316.89c.488-.864.75-1.617.89-2.144l.04-.144a1.998 1.998 0 00-.74-2.098 10.145 10.145 0 01-2.095-2.1c-1.102-1.508-1.685-3.233-1.685-4.986 0-1.163.253-2.308.75-3.404l.029-.06C28.474 29.35 32.481 27 37 27zm-6 7a1 1 0 100 2h12a1 1 0 100-2H31zm0 4a1 1 0 100 2h7a1 1 0 100-2h-7z"/>
</svg>
