<svg xmlns="http://www.w3.org/2000/svg" viewBox="0 0 50 50">
  <path d="M14 11C6.281 11 0 17.281 0 25s6.281 14 14 14h22c7.719 0 14-6.281 14-14s-6.281-14-14-14zm0 2h14.844c-.543.324-1.07.672-1.563 1.063-.093-.028-.18-.063-.281-.063-.55 0-1 .45-1 1 0 .07.047.121.063.188a14.347 14.347 0 00-1.594 1.937A.955.955 0 0024 17c-.55 0-1 .45-1 1 0 .352.195.633.469.813A13.845 13.845 0 0022 25c0 5.098 2.758 9.55 6.844 12H14c-.543 0-1.07-.055-1.594-.125.34-.16.594-.477.594-.875 0-.55-.45-1-1-1s-1 .45-1 1c0 .262.086.508.25.688a11.97 11.97 0 01-8.938-8.938c.18.164.426.25.688.25.55 0 1-.45 1-1s-.45-1-1-1c-.398 0-.715.254-.875.594C2.055 26.07 2 25.543 2 25c0-1.105.16-2.172.438-3.188.16.114.351.188.562.188.55 0 1-.45 1-1 0-.516-.402-.918-.906-.969 1.062-2.336 2.832-4.289 5.062-5.531A.957.957 0 008 15c0 .55.45 1 1 1s1-.45 1-1c0-.508-.387-.902-.875-.969A12.006 12.006 0 0114 13zm4 24c.55 0 1-.45 1-1s-.45-1-1-1-1 .45-1 1 .45 1 1 1zm6 0c.55 0 1-.45 1-1s-.45-1-1-1-1 .45-1 1 .45 1 1 1zm12-24c6.64 0 12 5.36 12 12s-5.36 12-12 12-12-5.36-12-12 5.36-12 12-12zm-21 1c-.55 0-1 .45-1 1s.45 1 1 1 1-.45 1-1-.45-1-1-1zm6 0c-.55 0-1 .45-1 1s.45 1 1 1 1-.45 1-1-.45-1-1-1zM6 17c-.55 0-1 .45-1 1s.45 1 1 1 1-.45 1-1-.45-1-1-1zm6 0c-.55 0-1 .45-1 1s.45 1 1 1 1-.45 1-1-.45-1-1-1zm6 0c-.55 0-1 .45-1 1s.45 1 1 1 1-.45 1-1-.45-1-1-1zm-9 3c-.55 0-1 .45-1 1s.45 1 1 1 1-.45 1-1-.45-1-1-1zm6 0c-.55 0-1 .45-1 1s.45 1 1 1 1-.45 1-1-.45-1-1-1zm6 0c-.55 0-1 .45-1 1s.45 1 1 1 1-.45 1-1-.45-1-1-1zM6 23c-.55 0-1 .45-1 1s.45 1 1 1 1-.45 1-1-.45-1-1-1zm6 0c-.55 0-1 .45-1 1s.45 1 1 1 1-.45 1-1-.45-1-1-1zm6 0c-.55 0-1 .45-1 1s.45 1 1 1 1-.45 1-1-.45-1-1-1zm-9 3c-.55 0-1 .45-1 1s.45 1 1 1 1-.45 1-1-.45-1-1-1zm6 0c-.55 0-1 .45-1 1s.45 1 1 1 1-.45 1-1-.45-1-1-1zm6 0c-.55 0-1 .45-1 1s.45 1 1 1 1-.45 1-1-.45-1-1-1zM6 29c-.55 0-1 .45-1 1s.45 1 1 1 1-.45 1-1-.45-1-1-1zm6 0c-.55 0-1 .45-1 1s.45 1 1 1 1-.45 1-1-.45-1-1-1zm6 0c-.55 0-1 .45-1 1s.45 1 1 1 1-.45 1-1-.45-1-1-1zm-9 3c-.55 0-1 .45-1 1s.45 1 1 1 1-.45 1-1-.45-1-1-1zm6 0c-.55 0-1 .45-1 1s.45 1 1 1 1-.45 1-1-.45-1-1-1zm6 0c-.55 0-1 .45-1 1s.45 1 1 1 1-.45 1-1-.45-1-1-1z"/>
</svg>
