<svg xmlns="http://www.w3.org/2000/svg" viewBox="0 0 50 50">
  <path d="M3.992 2.992c-.293 0-.566.125-.758.344A1.005 1.005 0 003 4.129V11c-.004.36.184.695.496.879.313.18.695.18 1.008 0 .312-.184.5-.52.496-.879V6.414l8.293 8.293c.25.262.625.367.973.273a.99.99 0 00.714-.714.992.992 0 00-.273-.973L6.414 5H11c.36.004.695-.184.879-.496a1.01 1.01 0 000-1.008c-.184-.312-.52-.5-.879-.496H4.117c-.043-.008-.086-.008-.125-.008zm41.988 0a.96.96 0 00-.109.008H39a1.006 1.006 0 00-.879.496 1.01 1.01 0 000 1.008c.184.312.52.5.879.496h4.586l-8.293 8.293a.992.992 0 00-.273.973.99.99 0 00.714.714.992.992 0 00.973-.273L45 6.414V11c-.004.36.184.695.496.879.313.18.695.18 1.008 0 .312-.184.5-.52.496-.879V4.125c.04-.29-.05-.582-.246-.805a.987.987 0 00-.774-.328zM25 5c-4.434 0-8.52 1.469-11.84 3.918l1.43 1.426A17.863 17.863 0 0125 7c3.883 0 7.469 1.246 10.41 3.344l1.43-1.426C33.52 6.468 29.434 5 25 5zM8.918 13.16C6.468 16.48 5 20.566 5 25s1.469 8.52 3.918 11.84l1.426-1.43A17.863 17.863 0 017 25c0-3.883 1.246-7.469 3.344-10.41zm32.164 0l-1.426 1.43a17.863 17.863 0 01-.343 21.277l1.484 1.352C43.422 33.832 45 29.602 45 25c0-4.434-1.469-8.52-3.918-11.84zM13.98 34.988a.991.991 0 00-.687.305L5 43.586V39a1.003 1.003 0 00-1.016-1.016c-.55.012-.992.465-.984 1.016v6.848c-.055.32.05.644.277.875.23.226.555.332.875.277H11c.36.004.695-.184.879-.496a1.01 1.01 0 000-1.008c-.184-.312-.52-.5-.879-.496H6.414l8.293-8.293a.997.997 0 00.223-1.105.995.995 0 00-.95-.614zm20.961.004a.999.999 0 00-.613 1.746L43.414 45H39a1.006 1.006 0 00-.879.496 1.01 1.01 0 000 1.008c.184.312.52.5.879.496h6.828a.994.994 0 00.899-.277.985.985 0 00.273-.899V39a1.003 1.003 0 00-1.016-1.016c-.55.012-.992.465-.984 1.016v4.738l-9.328-8.476a.996.996 0 00-.73-.27zM14.59 39.656l-1.43 1.426C16.48 43.532 20.566 45 25 45c4.258 0 8.203-1.348 11.453-3.625l-1.516-1.379A17.897 17.897 0 0125 43a17.863 17.863 0 01-10.41-3.344z"/>
</svg>
