<svg xmlns="http://www.w3.org/2000/svg" viewBox="0 0 50 50">
  <path d="M9 4C6.25 4 4 6.25 4 9v32c0 2.75 2.25 5 5 5h32c2.75 0 5-2.25 5-5V9c0-2.75-2.25-5-5-5H9zm0 2h32c1.668 0 3 1.332 3 3v32c0 1.668-1.332 3-3 3H9c-1.668 0-3-1.332-3-3V9c0-1.668 1.332-3 3-3zm14.451 6c-.272 0-.451.172-.451.43v3.14c0 .257.178.43.451.43v-.002h3.094c.272 0 .455-.172.455-.43V12.43c0-.257-.183-.43-.455-.43H23.45zm.024 8c-.284 0-.475.152-.475.377v17.246c0 .225.189.375.475.375V38h3.048c.286 0 .477-.152.477-.377V20.377c0-.225-.19-.377-.477-.377h-3.048z"/>
</svg>
