<svg xmlns="http://www.w3.org/2000/svg" viewBox="0 0 50 50">
  <path d="M21 3C11.623 3 4 10.623 4 20c0 9.377 7.623 17 17 17a16.89 16.89 0 009.938-3.234l13.148 13.148 2.828-2.828-13.027-13.027C36.444 28.083 38 24.224 38 20c0-9.377-7.623-17-17-17zm0 2c8.296 0 15 6.704 15 15s-6.704 15-15 15S6 28.296 6 20 12.704 5 21 5zm-6 9a2 2 0 00-2 2 2 2 0 002 2 2 2 0 002-2 2 2 0 00-2-2zm12 0a2 2 0 00-2 2 2 2 0 002 2 2 2 0 002-2 2 2 0 00-2-2zm-6 9c-3.595 0-5.738 2.326-5.738 2.326a1 1 0 101.476 1.348S18.245 25 21 25s4.262 1.674 4.262 1.674a1 1 0 101.476-1.348S24.595 23 21 23z"/>
</svg>
