<svg xmlns="http://www.w3.org/2000/svg" viewBox="0 0 50 50">
  <path d="M11.703 4.344L7.86 8.625 5.11 6.25l-1.312 1.5 3.5 3 .75.656.654-.75 4.5-5-1.498-1.312zM20 7v2h30V7H20zM5.707 19.191l-1.414 1.414 2.793 2.793-2.793 2.793 1.414 1.414L8.5 24.812l2.793 2.793 1.414-1.414-2.793-2.793 2.793-2.793-1.414-1.414L8.5 21.984l-2.793-2.793zM20 23v2h30v-2H20zM8.197 35c-2.33 0-3.82 1.306-3.892 3.41l-.004.104h2.101l.006-.092c.063-.942.708-1.527 1.684-1.527.944 0 1.603.554 1.603 1.35 0 .742-.304 1.151-1.297 1.751-1.185.695-1.637 1.477-1.564 2.69l.01.65h2.08v-.565c0-.77.281-1.145 1.312-1.751C11.423 40.31 12 39.379 12 38.17 12 36.304 10.436 35 8.197 35zM20 40v2h30v-2H20zM7.973 44.414c-.864 0-1.446.562-1.446 1.397 0 .83.582 1.388 1.446 1.388.878 0 1.443-.545 1.443-1.388 0-.848-.565-1.397-1.443-1.397z"/>
</svg>
