<svg xmlns="http://www.w3.org/2000/svg" viewBox="0 0 50 50">
  <path d="M24.906.969c-.043.008-.086.02-.125.031A1.002 1.002 0 0024 2v30.563l-6.281-6.282A1.007 1.007 0 0016.78 26a.994.994 0 00-.781.703c-.105.367.004.758.281 1.016l8 8 .719.687.719-.687 8-8a1.014 1.014 0 000-1.438 1.014 1.014 0 00-1.438 0L26 32.563V2A1 1 0 0024.906.969zM7 16v34h36V16H33a1.006 1.006 0 00-.879.496 1.01 1.01 0 000 1.008c.184.312.52.5.879.496h8v30H9V18h8c.36.004.695-.184.879-.496a1.01 1.01 0 000-1.008c-.184-.312-.52-.5-.879-.496z"/>
</svg>
