<svg xmlns="http://www.w3.org/2000/svg" viewBox="0 0 50 50">
  <path d="M0 4v42h50V4zm2 2h46v38H2zm3 3v20.5a.996.996 0 000 .938V41h40V30.75a1.048 1.048 0 000-.313V9zm2 2h36v18.094l-7.625-3.032a.999.999 0 00-.813.032l-7.25 3.625-9.5-13.313a.997.997 0 00-.968-.406c-.23.04-.442.164-.594.344L7 27.156zm26 4c-2.2 0-4 1.8-4 4s1.8 4 4 4 4-1.8 4-4-1.8-4-4-4zm0 2c1.117 0 2 .883 2 2s-.883 2-2 2-2-.883-2-2 .883-2 2-2zm-16.094 1.625l9.282 12.969a.999.999 0 001.25.312l7.593-3.812L43 31.28V39H7v-8.813z"/>
</svg>
