<svg xmlns="http://www.w3.org/2000/svg" viewBox="0 0 50 50">
  <path d="M49.602 8.898c-.102-.296-.403-.597-.704-.597a.802.802 0 00-.898.3l-5.3 5.297c-.302.301-.9.301-1.2 0l-5.3-5.296c-.302-.301-.302-.903 0-1.204L41.5 2c.2-.2.3-.602.3-.898C41.7.8 41.5.5 41.2.398c-4-1.398-10.4 1.5-13 4.102-2.598 2.602-2.9 6.2-.802 10.102l-.199.199L25 12.5c-1.898-2.102-4.5-3.3-7.398-3.398-2.903-.102-5.5 1-7.5 3l-7 7c-4 4-4 10.5 0 14.5L5 35.5l-3 2.8c-.8.802-1.7 2.2-2 4-.102 1.5 0 3.598 2 5.7 1.602 1.602 3.3 2 4.7 2 .3 0 .698 0 1-.102 1.8-.296 3.198-1.199 4-2l3.402-3.5c.199 0 .398.102.699.102 1.597 0 3.097-.8 3.898-2.102.5.204 1.102.301 1.602.301 2.3 0 4.199-1.597 4.597-3.8.301.101.602.101.903.101 2.3 0 4.199-1.602 4.597-3.8.301.1.602.1.903.1 2.597 0 4.699-2.1 4.699-4.698 0-1.403-.7-2.801-1.8-3.704l-2-2 2.198-2.199c3.903 2.102 7.403 1.801 10.102-.8 2.602-2.7 5.5-9.098 4.102-13zM10.3 46.5c-.5.5-1.602 1.2-2.903 1.398-1.5.204-2.796-.296-3.898-1.398-1.2-1.2-1.602-2.5-1.398-3.898C2.3 41.3 3 40.3 3.5 39.699l2.898-2.8 5.801 5.8c.301.301.602.602 1 .903zM34 28.398c.7.5 1.102 1.301 1.102 2.102 0 1.5-1.204 2.7-2.704 2.7-.5 0-.898-.098-1.398-.4l-1.8-1.1.3 2.1v.4c0 1.5-1.2 2.698-2.7 2.698-.5 0-.902-.097-1.402-.398l-1.796-1.102.296 2.102v.398c0 1.5-1.199 2.704-2.699 2.704-.5 0-1.097-.204-1.5-.5l-1.097-.704-.403 1.204c-.398 1.097-1.398 1.796-2.5 1.796-.8 0-1.597-.398-2.097-1L4.398 32.2C1.2 29 1.2 23.7 4.398 20.5l7-7C13 11.898 15.2 11 17.5 11.102c2.3.097 4.398 1 6 2.796l2.3 2.403-.6.597-.2-.296a.961.961 0 00-1.398 0 .961.961 0 000 1.398l10.296 10.3zm10-8c-2.7 2.704-6 1.602-8.3.102-.4-.2-.9-.2-1.2.2l-2.7 2.698-5.198-5.199L29.3 15.5c.3-.3.398-.8.199-1.2-1.398-2.402-2.5-5.698.102-8.3 1.898-1.898 6-3.898 9.097-4l-3.898 3.898C33.699 7 33.699 8.801 34.8 10l5.3 5.3c1.098 1.098 2.899 1.098 4.098 0l3.903-3.902c-.102 3-2.204 7.102-4.102 9z"/>
</svg>
