<svg xmlns="http://www.w3.org/2000/svg" viewBox="0 0 50 50">
  <path d="M7 4C5.355 4 4 5.355 4 7v36c0 1.645 1.355 3 3 3h36c1.645 0 3-1.355 3-3V13.2a1 1 0 00-.293-.708l-8.2-8.199A1 1 0 0036.802 4H7zm0 2h5v12c0 1.645 1.355 3 3 3h19c1.645 0 3-1.355 3-3V6.613l7 7V43c0 .555-.445 1-1 1h-5V29c0-1.645-1.355-3-3-3H15c-1.645 0-3 1.355-3 3v15H7c-.555 0-1-.445-1-1V7c0-.555.445-1 1-1zm7 0h21v12c0 .555-.445 1-1 1H15c-.555 0-1-.445-1-1V6zm15 2a1 1 0 00-1 1v7a1 1 0 001 1h3a1 1 0 001-1V9a1 1 0 00-1-1h-3zm1 2h1v5h-1v-5zM15 28h20c.555 0 1 .445 1 1v15H14V29c0-.555.445-1 1-1zM8 40v2h2v-2H8zm32 0v2h2v-2h-2z"/>
</svg>
