<svg xmlns="http://www.w3.org/2000/svg" viewBox="0 0 50 50">
  <path d="M10.906 5.969a.88.88 0 00-.094.031h-8A1 1 0 002 7v8c0 .55.45 1 1 1h44c.55 0 1-.45 1-1V7c0-.55-.45-1-1-1H11.219a.936.936 0 00-.313-.031zM5 8h4c0 .55.45 1 1 1v4c-.55 0-1 .45-1 1H5c0-.55-.45-1-1-1V9c.55 0 1-.45 1-1zm7 0h34v6H12zm-5 2c-.55 0-1 .45-1 1s.45 1 1 1 1-.45 1-1-.45-1-1-1zm27.906 9.969a.88.88 0 00-.093.031H2.812A1 1 0 002 21v8c0 .55.45 1 1 1h44c.55 0 1-.45 1-1v-8c0-.55-.45-1-1-1H35.219a.936.936 0 00-.313-.031zM5 22h4c0 .55.45 1 1 1s1-.45 1-1h4c0 .55.45 1 1 1s1-.45 1-1h4c0 .55.45 1 1 1s1-.45 1-1h4c0 .55.45 1 1 1s1-.45 1-1h4c0 .55.45 1 1 1v4c-.55 0-1 .45-1 1h-4c0-.55-.45-1-1-1s-1 .45-1 1h-4c0-.55-.45-1-1-1s-1 .45-1 1h-4c0-.55-.45-1-1-1s-1 .45-1 1h-4c0-.55-.45-1-1-1s-1 .45-1 1H5c0-.55-.45-1-1-1v-4c.55 0 1-.45 1-1zm31 0h10v6H36zM7 24c-.55 0-1 .45-1 1s.45 1 1 1 1-.45 1-1-.45-1-1-1zm6 0c-.55 0-1 .45-1 1s.45 1 1 1 1-.45 1-1-.45-1-1-1zm6 0c-.55 0-1 .45-1 1s.45 1 1 1 1-.45 1-1-.45-1-1-1zm6 0c-.55 0-1 .45-1 1s.45 1 1 1 1-.45 1-1-.45-1-1-1zm6 0c-.55 0-1 .45-1 1s.45 1 1 1 1-.45 1-1-.45-1-1-1zm-8.094 9.969a.88.88 0 00-.093.031H2.811A1 1 0 002 35v8c0 .55.45 1 1 1h44c.55 0 1-.45 1-1v-8c0-.55-.45-1-1-1H23.219a.936.936 0 00-.313-.031zM5 36h4c0 .55.45 1 1 1s1-.45 1-1h4c0 .55.45 1 1 1s1-.45 1-1h4c0 .55.45 1 1 1v4c-.55 0-1 .45-1 1h-4c0-.55-.45-1-1-1s-1 .45-1 1h-4c0-.55-.45-1-1-1s-1 .45-1 1H5c0-.55-.45-1-1-1v-4c.55 0 1-.45 1-1zm19 0h22v6H24zM7 38c-.55 0-1 .45-1 1s.45 1 1 1 1-.45 1-1-.45-1-1-1zm6 0c-.55 0-1 .45-1 1s.45 1 1 1 1-.45 1-1-.45-1-1-1zm6 0c-.55 0-1 .45-1 1s.45 1 1 1 1-.45 1-1-.45-1-1-1z"/>
</svg>
