<svg xmlns="http://www.w3.org/2000/svg" viewBox="0 0 50 50">
  <path d="M24.963 1.055a1 1 0 00-.578.209l-23 17.947a1 1 0 001.23 1.578L4 19.71V46a1 1 0 001 1h13.832a1 1 0 00.326 0h11.674a1 1 0 00.326 0H45a1 1 0 001-1V19.709l1.385 1.08a1 1 0 101.23-1.578L41 13.27v-.762-2.662V6a1 1 0 00-1-1h-4a1 1 0 00-1 1v2.588l-9.385-7.324a1 1 0 00-.652-.21zM25 3.322l10.379 8.098a1 1 0 00.988.14l.62-.798.005-.065.002-.035.002-.027v-.047-.152l.002-.528L37 8.316V7h2v6.398c0 .219 0 .283.002.372a1 1 0 00.385.777l4.613 3.6V45H32V26H18v19H6V18.148L25 3.322zM20 28h10v17H20V28zm7 7a1 1 0 00-1 1 1 1 0 001 1 1 1 0 001-1 1 1 0 00-1-1z"/>
</svg>
