<svg xmlns="http://www.w3.org/2000/svg"  viewBox="0 0 32 32"><path d="M 15 4 L 15 8 L 17 8 L 17 4 L 15 4 z M 3 6 L 3 26 L 29 26 L 29 6 L 18 6 L 18 8 L 27 8 L 27 24 L 5 24 L 5 8 L 14 8 L 14 6 L 3 6 z M 12 10 C 9.8026661 10 8 11.802666 8 14 C 8 15.151992 8.5107676 16.176056 9.2988281 16.908203 C 7.9485276 17.80602 7 19.266416 7 21 L 9 21 C 9 19.331516 10.331516 18 12 18 C 13.668484 18 15 19.331516 15 21 L 17 21 C 17 19.266416 16.051472 17.80602 14.701172 16.908203 C 15.489232 16.176056 16 15.151992 16 14 C 16 11.802666 14.197334 10 12 10 z M 19 11 L 19 13 L 25 13 L 25 11 L 19 11 z M 12 12 C 13.116666 12 14 12.883334 14 14 C 14 15.116666 13.116666 16 12 16 C 10.883334 16 10 15.116666 10 14 C 10 12.883334 10.883334 12 12 12 z M 19 15 L 19 17 L 25 17 L 25 15 L 19 15 z M 19 19 L 19 21 L 23 21 L 23 19 L 19 19 z"/></svg>
