<svg xmlns="http://www.w3.org/2000/svg" viewBox="0 0 24 24">
  <path d="M19.3 7l-4.5-4.5-.2-.2H4.5v19.5h15V7.2l-.2-.2zM15 4.8l1.9 1.9H15V4.8zm3 15.4H6V3.8h7.5v4.5H18v11.9z"/>
  <path d="M12.4 12.3c.1-.5.3-1.1.4-1.5 0-.5 0-1-.1-1.4-.1-.2-.2-.4-.4-.6-.2-.2-.4-.3-.7-.3-.2 0-.5.1-.7.2-.2.2-.3.4-.3.6-.1.4-.1.8 0 1.3s.4 1.2.7 1.8c-.1.6-.2 1.1-.4 1.7-.2.5-.4.8-.6 1.2-.5.2-1 .3-1.4.5-.4.2-.8.5-1 .9s-.2.9.1 1.3c.1.2.3.4.6.5s.5.1.7 0c.4-.2.8-.5 1.1-.9.3-.4.5-1 .7-1.5.4-.1.7-.3 1.1-.4.4-.1.7 0 1.1-.1.2.2.3.5.5.7.4.3.8.6 1.2.6s.9-.3 1.2-.7c.1-.2.2-.4.2-.7s-.2-.4-.4-.5c-.3-.3-.7-.4-1.1-.5-.3 0-.8.1-1.2.1-.3-.4-.7-.8-1-1.4-.1-.3-.2-.5-.3-.9zm-3 4.8c-.2.3-.4.4-.5.5-.1-.1-.1-.1 0-.2s.2-.3.5-.5h.1c-.1 0-.1.1-.1.2zm2.4-2.3v-.3c0-.1 0-.3.1-.4.1.2.3.4.4.6-.1 0-.3 0-.5.1zm2.9.8c.3 0 .3.1.4.1l-.1.2-.4-.2c0-.1.1-.1.1-.1z"/>
</svg>
