<svg xmlns="http://www.w3.org/2000/svg"  viewBox="0 0 32 32"><path d="M 7 4 L 7 6 L 9 6 L 9 10 C 9 12.598725 10.502075 14.792695 12.623047 16 C 10.502075 17.207305 9 19.401275 9 22 L 9 26 L 7 26 L 7 28 L 9 28 L 23 28 L 25 28 L 25 26 L 23 26 L 23 22 C 23 19.401275 21.497925 17.207305 19.376953 16 C 21.497925 14.792695 23 12.598725 23 10 L 23 6 L 25 6 L 25 4 L 23 4 L 9 4 L 7 4 z M 11 6 L 21 6 L 21 10 C 21 12.754545 18.754545 15 16 15 C 13.245455 15 11 12.754545 11 10 L 11 6 z M 16 17 C 18.754545 17 21 19.245455 21 22 L 21 26 L 20 26 C 20 23.8 18.2 22 16 22 C 13.8 22 12 23.8 12 26 L 11 26 L 11 22 C 11 19.245455 13.245455 17 16 17 z"/></svg>
