<svg xmlns="http://www.w3.org/2000/svg" viewBox="0 0 32 32">
  <path d="M23 5c-2.2 0-4 1.8-4 4 0 .777.234 1.5.625 2.117L16.52 15h-4.665c-.449-1.715-2.003-3-3.855-3-2.2 0-4 1.8-4 4s1.8 4 4 4c1.852 0 3.406-1.285 3.855-3h4.665l3.105 3.883A3.946 3.946 0 0019 23c0 2.2 1.8 4 4 4s4-1.8 4-4-1.8-4-4-4a3.92 3.92 0 00-1.91.512L18.28 16l2.809-3.512A3.92 3.92 0 0023 13c2.2 0 4-1.8 4-4s-1.8-4-4-4zm0 2c1.117 0 2 .883 2 2s-.883 2-2 2-2-.883-2-2 .883-2 2-2zM8 14c1.117 0 2 .883 2 2s-.883 2-2 2-2-.883-2-2 .883-2 2-2zm15 7c1.117 0 2 .883 2 2s-.883 2-2 2-2-.883-2-2 .883-2 2-2z"/>
</svg>
