<svg xmlns="http://www.w3.org/2000/svg"  viewBox="0 0 32 32" width="50px" height="50px"><path d="M 10.292969 5.7929688 L 8 8.0859375 L 6.7070312 6.7929688 L 5.2929688 8.2070312 L 8 10.914062 L 11.707031 7.2070312 L 10.292969 5.7929688 z M 14 7 L 14 9 L 27 9 L 27 7 L 14 7 z M 10.292969 12.792969 L 8 15.085938 L 6.7070312 13.792969 L 5.2929688 15.207031 L 8 17.914062 L 11.707031 14.207031 L 10.292969 12.792969 z M 14 15 L 14 17 L 23 17 L 23 15 L 14 15 z M 26 18 C 24.75 18 23.685226 18.504756 23.001953 19.273438 C 22.318681 20.042119 22 21.027778 22 22 C 22 22.972222 22.318681 23.957882 23.001953 24.726562 C 23.039333 24.768612 23.102952 24.787692 23.142578 24.828125 C 21.301648 25.855372 20 27.751732 20 30 L 22 30 C 22 27.779625 23.779625 26 26 26 C 28.220375 26 30 27.779625 30 30 L 32 30 C 32 27.751732 30.698352 25.855372 28.857422 24.828125 C 28.897052 24.787695 28.960669 24.768615 28.998047 24.726562 C 29.681319 23.957881 30 22.972222 30 22 C 30 21.027778 29.681319 20.042118 28.998047 19.273438 C 28.314774 18.504756 27.25 18 26 18 z M 26 20 C 26.749999 20 27.185226 20.245244 27.501953 20.601562 C 27.81868 20.957881 28 21.472222 28 22 C 28 22.527778 27.81868 23.042118 27.501953 23.398438 C 27.185226 23.754756 26.749999 24 26 24 C 25.250001 24 24.814774 23.754756 24.498047 23.398438 C 24.18132 23.042119 24 22.527778 24 22 C 24 21.472222 24.18132 20.957882 24.498047 20.601562 C 24.814774 20.245244 25.250001 20 26 20 z M 10.292969 20.792969 L 8 23.085938 L 6.7070312 21.792969 L 5.2929688 23.207031 L 8 25.914062 L 11.707031 22.207031 L 10.292969 20.792969 z M 14 23 L 14 25 L 19 25 L 19 23 L 14 23 z"/></svg>